<svg width="40" height="42" viewBox="0 0 40 42" fill="none" xmlns="http://www.w3.org/2000/svg">
<path d="M36.4205 9.70471C31.358 7.19906 25.7856 5.89551 20.1369 5.89551C14.4883 5.89551 8.91588 7.19906 3.85339 9.70471L6.06631 14.2187C7.27235 16.6537 7.89902 19.3347 7.89735 22.052V26.3995C7.88564 26.8759 8.04215 27.3412 8.33941 27.7136C8.63666 28.0861 9.05564 28.3419 9.52277 28.4362C9.80635 28.4851 10.0972 28.471 10.3747 28.3947C10.6522 28.3185 10.9095 28.182 11.1283 27.995C11.347 27.8081 11.5219 27.5752 11.6404 27.3129C11.7589 27.0507 11.8182 26.7656 11.814 26.4778V25.812L19.2655 40.852C19.3476 41.0124 19.4725 41.147 19.6262 41.241C19.78 41.335 19.9567 41.3847 20.1369 41.3847C20.3171 41.3847 20.4939 41.335 20.6476 41.241C20.8014 41.147 20.9262 41.0124 21.0084 40.852L23.564 35.6918V37.7187C23.564 38.1082 23.7188 38.4818 23.9942 38.7572C24.2696 39.0327 24.6432 39.1874 25.0328 39.1874C25.4223 39.1874 25.7959 39.0327 26.0713 38.7572C26.3468 38.4818 26.5015 38.1082 26.5015 37.7187V32.0395C26.4867 30.5372 26.8219 29.052 27.4807 27.7018C28.7144 25.1951 30.0363 22.5416 31.3974 19.8685V22.5416C31.3974 22.9311 31.5521 23.3047 31.8275 23.5801C32.103 23.8556 32.4766 24.0103 32.8661 24.0103C33.2556 24.0103 33.6292 23.8556 33.9047 23.5801C34.1801 23.3047 34.3348 22.9311 34.3348 22.5416V16.177C34.3245 14.672 34.6595 13.1847 35.314 11.8295L36.4205 9.70471Z" fill="#FFE500"/>
<path d="M20.1369 9.07804C25.3195 9.07684 30.443 10.1783 35.1671 12.3093C35.2259 12.1624 35.2846 12.0058 35.3532 11.8687L36.4205 9.70471C31.358 7.19906 25.7856 5.89551 20.1369 5.89551C14.4883 5.89551 8.91588 7.19906 3.85339 9.70471L5.1361 12.2603C9.85503 10.1505 14.9679 9.0659 20.1369 9.07804V9.07804Z" fill="#EBCB00"/>
<path d="M26.5015 20.5833C25.3329 20.5833 24.2122 21.0475 23.3858 21.8738C22.5595 22.7001 22.0953 23.8209 22.0953 24.9895C22.0953 26.1581 22.5595 27.2789 23.3858 28.1052C24.2122 28.9315 25.3329 29.3958 26.5015 29.3958H26.6876C27.7744 27.2122 28.9299 24.872 30.1049 22.4828C29.7032 21.8978 29.1654 21.4192 28.5376 21.0883C27.9099 20.7574 27.2111 20.5841 26.5015 20.5833V20.5833Z" fill="#FF6242" stroke="#45413C" stroke-linecap="round" stroke-linejoin="round"/>
<path d="M19.6474 30.8645C19.6487 30.2855 19.5356 29.712 19.3146 29.1768C19.0936 28.6416 18.7691 28.1554 18.3597 27.7459C17.9503 27.3365 17.464 27.012 16.9289 26.791C16.3937 26.5701 15.8201 26.457 15.2411 26.4583C14.2803 26.4602 13.3472 26.7805 12.5876 27.3689L16.4161 35.0945C17.3431 34.8397 18.1611 34.2881 18.7447 33.5241C19.3283 32.7601 19.6454 31.8259 19.6474 30.8645V30.8645Z" fill="#FF6242" stroke="#45413C" stroke-linecap="round" stroke-linejoin="round"/>
<path d="M26.5015 17.1563C28.935 17.1563 30.9078 15.1835 30.9078 12.75C30.9078 10.3165 28.935 8.34375 26.5015 8.34375C24.068 8.34375 22.0953 10.3165 22.0953 12.75C22.0953 15.1835 24.068 17.1563 26.5015 17.1563Z" fill="#FF6242" stroke="#45413C" stroke-linecap="round" stroke-linejoin="round"/>
<path d="M20.137 5.89583C25.7865 5.88795 31.3607 7.19184 36.4205 9.70479C36.4205 9.70479 38.8391 10.0083 39.2307 7.85417C40.2099 2.46875 24.2201 1 20.137 1C16.0538 1 0.0640516 2.46875 1.04322 7.85417C1.43489 10.0083 3.85343 9.70479 3.85343 9.70479C8.91327 7.19184 14.4875 5.88795 20.137 5.89583V5.89583Z" fill="#F0D5A8"/>
<path d="M1.08236 8.01083C4.64653 4.49563 16.6119 3.44792 20.1369 3.44792C23.6619 3.44792 35.6274 4.49563 39.1915 8.01083C39.1915 7.95208 39.1915 7.91292 39.1915 7.85417C40.1707 2.46875 24.1809 1 20.0978 1C16.0147 1 0.0640307 2.46875 1.0432 7.85417C1.05299 7.91292 1.07257 7.95208 1.08236 8.01083Z" fill="#F7E5C6"/>
<path d="M20.137 5.89583C25.7865 5.88795 31.3607 7.19184 36.4205 9.70479C36.4205 9.70479 38.8391 10.0083 39.2307 7.85417C40.2099 2.46875 24.2201 1 20.137 1C16.0538 1 0.0640516 2.46875 1.04322 7.85417C1.43489 10.0083 3.85343 9.70479 3.85343 9.70479C8.91327 7.19184 14.4875 5.88795 20.137 5.89583V5.89583Z" stroke="#45413C" stroke-linecap="round" stroke-linejoin="round"/>
<path d="M13.2828 19.6042C15.7163 19.6042 17.689 17.6315 17.689 15.198C17.689 12.7645 15.7163 10.7917 13.2828 10.7917C10.8493 10.7917 8.87653 12.7645 8.87653 15.198C8.87653 17.6315 10.8493 19.6042 13.2828 19.6042Z" fill="#FF6242" stroke="#45413C" stroke-linecap="round" stroke-linejoin="round"/>
<path d="M11.814 25.7924V23.5208" stroke="#45413C" stroke-linecap="round" stroke-linejoin="round"/>
<path d="M36.4205 9.70471C31.358 7.19906 25.7856 5.89551 20.1369 5.89551C14.4883 5.89551 8.91588 7.19906 3.85339 9.70471L6.06631 14.2187C7.27235 16.6537 7.89902 19.3347 7.89735 22.052V26.3995C7.88564 26.8759 8.04215 27.3412 8.33941 27.7136C8.63666 28.0861 9.05564 28.3419 9.52277 28.4362C9.80635 28.4851 10.0972 28.471 10.3747 28.3947C10.6522 28.3185 10.9095 28.182 11.1283 27.995C11.347 27.8081 11.5219 27.5752 11.6404 27.3129C11.7589 27.0507 11.8182 26.7656 11.814 26.4778V25.812L19.2655 40.852C19.3476 41.0124 19.4725 41.147 19.6262 41.241C19.78 41.335 19.9567 41.3847 20.1369 41.3847C20.3171 41.3847 20.4939 41.335 20.6476 41.241C20.8014 41.147 20.9262 41.0124 21.0084 40.852L23.564 35.6918V37.7187C23.564 38.1082 23.7188 38.4818 23.9942 38.7572C24.2696 39.0327 24.6432 39.1874 25.0328 39.1874C25.4223 39.1874 25.7959 39.0327 26.0713 38.7572C26.3468 38.4818 26.5015 38.1082 26.5015 37.7187V32.0395C26.4867 30.5372 26.8219 29.052 27.4807 27.7018C28.7144 25.1951 30.0363 22.5416 31.3974 19.8685V22.5416C31.3974 22.9311 31.5521 23.3047 31.8275 23.5801C32.103 23.8556 32.4766 24.0103 32.8661 24.0103C33.2556 24.0103 33.6292 23.8556 33.9047 23.5801C34.1801 23.3047 34.3349 22.9311 34.3349 22.5416V16.177C34.3245 14.672 34.6595 13.1847 35.314 11.8295L36.4205 9.70471Z" stroke="#45413C" stroke-linecap="round" stroke-linejoin="round"/>
<path d="M23.564 33.3125V35.6919" stroke="#45413C" stroke-linecap="round" stroke-linejoin="round"/>
<path d="M31.3973 18.1355V19.8588" stroke="#45413C" stroke-linecap="round" stroke-linejoin="round"/>
</svg>
