<svg width="47" height="47" viewBox="0 0 47 47" fill="none" xmlns="http://www.w3.org/2000/svg">
<path d="M18.7455 1V17L13.7454 12C6.18935 19.5 6.68935 32 18.7455 37.5V45.5C18.7455 45.5 -12.3101 35.5 7.74545 6L2.74545 1H18.7455Z" fill="#303030"/>
<path d="M7.74545 6L2.74545 1H18.7455V17L13.7454 12M7.74545 6C-12.3101 35.5 18.7455 45.5 18.7455 45.5V37.5C6.68935 32 6.18935 19.5 13.7454 12M7.74545 6L13.7454 12" stroke="#303030"/>
<path d="M28.0002 45.4998L28.0378 29.4999L33.026 34.5116C40.5997 27.0294 40.1291 14.5282 28.0859 8.99992L28.1047 0.999947C28.1047 0.999947 59.1367 11.0729 39.0119 40.5257L44.0002 45.5374L28.0002 45.4998Z" fill="#303030"/>
<path d="M39.0119 40.5257L44.0002 45.5374L28.0002 45.4998L28.0378 29.4999L33.026 34.5116M39.0119 40.5257C59.1367 11.0729 28.1047 0.999947 28.1047 0.999947L28.0859 8.99992C40.1291 14.5282 40.5997 27.0294 33.026 34.5116M39.0119 40.5257L33.026 34.5116" stroke="#303030"/>
</svg>
