<svg width="211" height="50" viewBox="0 0 211 50" fill="none" xmlns="http://www.w3.org/2000/svg">
<g filter="url(#filter0_d)">
<path d="M53.4258 22.543V16.3789C53.4258 15.582 53.3711 15.0781 53.2617 14.8672C53.1523 14.6484 52.8555 14.4727 52.3711 14.3398C51.668 14.1367 51.3164 13.7852 51.3164 13.2852C51.3164 12.9336 51.4648 12.6641 51.7617 12.4766C52.0586 12.2891 52.4883 12.1953 53.0508 12.1953C53.2383 12.1953 53.7031 12.207 54.4453 12.2305H55.1484C56.4453 12.2227 57.2031 12.2148 57.4219 12.207C57.6484 12.1914 58.4453 12.1211 59.8125 11.9961C60.2656 11.9492 60.6797 11.9258 61.0547 11.9258C62.3359 11.9258 63.4766 12.1875 64.4766 12.7109C66.2188 13.6172 67.0898 15.0547 67.0898 17.0234C67.0898 18.6172 66.4805 19.8945 65.2617 20.8555C64.1133 21.7539 62.7227 22.2031 61.0898 22.2031C60.6758 22.2031 60.168 22.1758 59.5664 22.1211C59.2461 22.0977 59.0469 22.0859 58.9688 22.0859C58.7422 22.0859 58.6289 22.2148 58.6289 22.4727V22.543L58.7109 24.4648C58.7266 24.8398 58.793 25.1211 58.9102 25.3086C59.0352 25.4883 59.2852 25.6758 59.6602 25.8711C60.168 26.1445 60.4219 26.4414 60.4219 26.7617C60.4219 27.2539 60.0469 27.6328 59.2969 27.8984C58.5469 28.1641 57.4844 28.2969 56.1094 28.2969C53.2188 28.2969 51.7734 27.8008 51.7734 26.8086C51.7734 26.5742 51.8359 26.3945 51.9609 26.2695C52.0859 26.1445 52.3789 25.9648 52.8398 25.7305C53.1211 25.582 53.2852 25.375 53.332 25.1094C53.3789 24.8438 53.4102 23.9883 53.4258 22.543ZM58.7109 14.8906V18.875C58.7109 19.1797 58.7773 19.3633 58.9102 19.4258C59.1367 19.5352 59.4219 19.5898 59.7656 19.5898C60.2812 19.5898 60.7148 19.4453 61.0664 19.1562C61.5742 18.7422 61.8281 18.0469 61.8281 17.0703C61.8281 16.0547 61.5312 15.3203 60.9375 14.8672C60.5625 14.5781 60.1094 14.4336 59.5781 14.4336C59 14.4336 58.7109 14.5859 58.7109 14.8906ZM73.3477 16.4609C73.7617 16.4609 74.0117 16.5195 74.0977 16.6367C74.1914 16.7539 74.2734 17.1289 74.3438 17.7617C74.3828 18.1055 74.5039 18.2773 74.707 18.2773C74.8633 18.2773 75.0117 18.1641 75.1523 17.9375C75.7773 16.9609 76.5938 16.4727 77.6016 16.4727C78.3125 16.4727 78.8945 16.7031 79.3477 17.1641C79.5664 17.3906 79.7461 17.6836 79.8867 18.043C80.0273 18.3945 80.0977 18.7344 80.0977 19.0625C80.0977 19.4297 80.0117 19.8086 79.8398 20.1992C79.668 20.582 79.4453 20.8984 79.1719 21.1484C78.6719 21.625 78.0586 21.8633 77.332 21.8633C76.9336 21.8633 76.5977 21.793 76.3242 21.6523C76.0586 21.5117 75.707 21.2266 75.2695 20.7969C75.1055 20.6328 74.9531 20.5508 74.8125 20.5508C74.5938 20.5508 74.4492 20.6758 74.3789 20.9258C74.3164 21.168 74.2852 21.6836 74.2852 22.4727C74.2852 23.6523 74.3281 24.457 74.4141 24.8867C74.4688 25.1211 74.543 25.2852 74.6367 25.3789C74.7383 25.4648 74.9492 25.5547 75.2695 25.6484C75.9727 25.8594 76.3242 26.2266 76.3242 26.75C76.3242 27.0703 76.2109 27.3516 75.9844 27.5938C75.7578 27.8281 75.457 27.9844 75.082 28.0625C74.332 28.2188 73.2305 28.2969 71.7773 28.2969C70.3945 28.2969 69.3438 28.1758 68.625 27.9336C67.9844 27.7148 67.6641 27.3359 67.6641 26.7969C67.6641 26.3906 67.8984 26.0273 68.3672 25.707C68.5938 25.5586 68.75 25.4258 68.8359 25.3086C68.9219 25.1836 68.9805 25.0156 69.0117 24.8047C69.1367 24.0938 69.1992 22.7773 69.1992 20.8555C69.1992 20.5039 69.1602 20.2539 69.082 20.1055C69.0039 19.9492 68.8477 19.8242 68.6133 19.7305C68.0586 19.5117 67.7812 19.1953 67.7812 18.7812C67.7812 18.4062 67.9727 18.0859 68.3555 17.8203C68.7383 17.5469 69.3789 17.2773 70.2773 17.0117C71.4805 16.6523 72.5039 16.4688 73.3477 16.4609ZM87.1758 16.3789C88.5352 16.3789 89.6875 16.7227 90.6328 17.4102C91.1328 17.7773 91.4805 18.1992 91.6758 18.6758C91.8789 19.1445 91.9805 19.793 91.9805 20.6211L91.957 22.3672C91.957 23.5781 92.043 24.3633 92.2148 24.7227C92.3008 24.8945 92.3828 25.0039 92.4609 25.0508C92.5391 25.0977 92.7031 25.1406 92.9531 25.1797C93.2031 25.2188 93.3281 25.3828 93.3281 25.6719C93.3281 26.0469 93.1758 26.4375 92.8711 26.8438C92.5742 27.25 92.1875 27.5898 91.7109 27.8633C91.125 28.207 90.5117 28.3789 89.8711 28.3789C89.0508 28.3789 88.4023 28.0977 87.9258 27.5352C87.7617 27.332 87.6094 27.2305 87.4688 27.2305C87.3125 27.2305 87.1055 27.3281 86.8477 27.5234C86.0664 28.0938 85.1797 28.3789 84.1875 28.3789C83.1641 28.3789 82.3359 28.1602 81.7031 27.7227C81.2891 27.4336 80.9609 27.0586 80.7188 26.5977C80.4766 26.1289 80.3555 25.6406 80.3555 25.1328C80.3555 24.3203 80.6836 23.6016 81.3398 22.9766C82.3633 21.9922 83.8945 21.4961 85.9336 21.4883C86.3867 21.4883 86.6719 21.4453 86.7891 21.3594C86.9062 21.2656 86.9648 21.0547 86.9648 20.7266C86.9648 19.8984 86.8789 19.3008 86.707 18.9336C86.5352 18.5586 86.2539 18.3711 85.8633 18.3711C85.6289 18.3711 85.418 18.4414 85.2305 18.582C85.0508 18.7227 84.8242 18.9805 84.5508 19.3555C83.8555 20.3477 83.1289 20.8438 82.3711 20.8438C81.9883 20.8438 81.6758 20.7305 81.4336 20.5039C81.1914 20.2773 81.0703 19.9805 81.0703 19.6133C81.0703 19.2383 81.2188 18.8633 81.5156 18.4883C81.8203 18.1133 82.2305 17.7852 82.7461 17.5039C84.1602 16.7539 85.6367 16.3789 87.1758 16.3789ZM86.3906 23.1641C86.0469 23.1641 85.7461 23.3047 85.4883 23.5859C85.2383 23.8672 85.1133 24.2031 85.1133 24.5938C85.1133 24.9688 85.2031 25.2734 85.3828 25.5078C85.5625 25.7344 85.8008 25.8477 86.0977 25.8477C86.7227 25.8477 87.0352 25.3203 87.0352 24.2656C87.0352 23.8359 86.9883 23.5469 86.8945 23.3984C86.8086 23.25 86.6406 23.1719 86.3906 23.1641ZM101.062 19.4609V23.4219C101.062 23.8906 101.176 24.2734 101.402 24.5703C101.637 24.8672 101.934 25.0156 102.293 25.0156C102.598 25.0156 103 24.875 103.5 24.5938C103.617 24.5234 103.734 24.4883 103.852 24.4883C104.039 24.4883 104.211 24.6016 104.367 24.8281C104.523 25.0547 104.602 25.3008 104.602 25.5664C104.602 26.0508 104.336 26.5156 103.805 26.9609C102.695 27.9062 101.352 28.3789 99.7734 28.3789C98.5234 28.3789 97.5195 28.0273 96.7617 27.3242C96.0039 26.6133 95.625 25.6797 95.625 24.5234V19.1094C95.625 18.9297 95.6016 18.8203 95.5547 18.7812C95.5156 18.7344 95.4062 18.7109 95.2266 18.7109H94.0195C93.793 18.7109 93.6484 18.6758 93.5859 18.6055C93.5234 18.5273 93.4922 18.3516 93.4922 18.0781V17.5625C93.5 17.3281 93.5898 17.1562 93.7617 17.0469L99.1289 13.6719C99.2617 13.6016 99.4258 13.5664 99.6211 13.5664H100.57C100.766 13.5664 100.895 13.6133 100.957 13.707C101.027 13.793 101.062 13.9688 101.062 14.2344V15.8164C101.062 16.0508 101.098 16.2031 101.168 16.2734C101.246 16.3438 101.406 16.3789 101.648 16.3789H103.816C104.105 16.3789 104.293 16.4336 104.379 16.543C104.465 16.6445 104.508 16.8672 104.508 17.2109V17.9023C104.508 18.2773 104.453 18.5391 104.344 18.6875C104.234 18.8281 104.035 18.8984 103.746 18.8984H101.625C101.406 18.8984 101.258 18.9375 101.18 19.0156C101.102 19.0938 101.062 19.2422 101.062 19.4609ZM112.324 16.3789C113.754 16.3789 115.008 16.75 116.086 17.4922C116.859 18.0234 117.48 18.7148 117.949 19.5664C118.434 20.457 118.676 21.3867 118.676 22.3555C118.676 24.0508 117.898 25.4922 116.344 26.6797C114.859 27.8125 113.16 28.3789 111.246 28.3789C109.379 28.3789 107.867 27.8477 106.711 26.7852C105.586 25.7539 105.023 24.4102 105.023 22.7539C105.023 20.9102 105.711 19.4023 107.086 18.2305C108.523 16.9961 110.27 16.3789 112.324 16.3789ZM111.387 19.0859C111.043 19.0859 110.766 19.2148 110.555 19.4727C110.352 19.7227 110.25 20.0586 110.25 20.4805C110.25 20.9492 110.336 21.5898 110.508 22.4023C110.688 23.207 110.898 23.9219 111.141 24.5469C111.383 25.1875 111.777 25.5078 112.324 25.5078C113.02 25.5078 113.367 25.0664 113.367 24.1836C113.367 23.5273 113.277 22.7812 113.098 21.9453C112.926 21.1094 112.715 20.4297 112.465 19.9062C112.207 19.375 111.848 19.1016 111.387 19.0859ZM124.465 28.0625H123.621C123.129 28.0625 122.578 28.0859 121.969 28.1328C121.586 28.1641 121.32 28.1797 121.172 28.1797C120.648 28.1797 120.223 28.0586 119.895 27.8164C119.566 27.5742 119.402 27.2578 119.402 26.8672C119.402 26.5938 119.473 26.3828 119.613 26.2344C119.762 26.0781 120 25.9531 120.328 25.8594C120.641 25.7812 120.852 25.6562 120.961 25.4844C121.07 25.3047 121.156 24.9609 121.219 24.4531C121.281 23.8672 121.336 22.7266 121.383 21.0312C121.438 19.3359 121.465 17.6523 121.465 15.9805C121.465 15.3242 121.414 14.8867 121.312 14.668C121.211 14.4492 120.973 14.2734 120.598 14.1406C120.059 13.9375 119.789 13.5898 119.789 13.0977C119.789 12.7148 119.973 12.418 120.34 12.207C120.715 11.9883 121.234 11.8789 121.898 11.8789C122.117 11.8789 122.375 11.8828 122.672 11.8906C123.328 11.9141 123.805 11.9258 124.102 11.9258C125.219 11.9258 126.48 11.8906 127.887 11.8203C128.184 11.8047 128.555 11.7969 129 11.7969C130.789 11.7969 132.203 12 133.242 12.4062C134.789 13.0156 135.953 14.0391 136.734 15.4766C137.43 16.7422 137.777 18.25 137.777 20C137.777 20.8828 137.648 21.7695 137.391 22.6602C137.133 23.543 136.785 24.3086 136.348 24.957C135.441 26.2695 134.191 27.1914 132.598 27.7227C131.66 28.0352 130.66 28.1914 129.598 28.1914L128.18 28.1445L126.961 28.1094C126.016 28.0781 125.184 28.0625 124.465 28.0625ZM126.926 15.3594V24.4297C126.926 24.9219 127.031 25.2734 127.242 25.4844C127.453 25.6875 127.805 25.7891 128.297 25.7891C130.578 25.7891 131.719 24.0547 131.719 20.5859C131.719 18.6719 131.453 17.1875 130.922 16.1328C130.336 14.9688 129.344 14.3867 127.945 14.3867C127.57 14.3867 127.305 14.4609 127.148 14.6094C127 14.7578 126.926 15.0078 126.926 15.3594ZM149.625 22.8125H144.117C143.875 22.8125 143.754 22.918 143.754 23.1289C143.754 23.6367 144.027 24.1172 144.574 24.5703C145.129 25.0156 145.723 25.2383 146.355 25.2383C146.73 25.2383 147.145 25.168 147.598 25.0273C148.059 24.8789 148.438 24.6992 148.734 24.4883C149 24.3008 149.211 24.207 149.367 24.207C149.57 24.207 149.77 24.332 149.965 24.582C150.16 24.832 150.258 25.0898 150.258 25.3555C150.258 25.918 149.906 26.4609 149.203 26.9844C147.961 27.9141 146.527 28.3789 144.902 28.3789C143.262 28.3789 141.887 27.9023 140.777 26.9492C140.238 26.4805 139.793 25.9141 139.441 25.25C138.98 24.3672 138.75 23.4375 138.75 22.4609C138.75 21.1484 139.148 19.9688 139.945 18.9219C140.633 18.0156 141.508 17.3398 142.57 16.8945C143.367 16.5586 144.23 16.3906 145.16 16.3906C146.645 16.3906 147.906 16.8125 148.945 17.6562C149.469 18.0781 149.891 18.5781 150.211 19.1562C150.578 19.8125 150.762 20.4531 150.762 21.0781C150.762 21.5859 150.656 22.0039 150.445 22.332C150.234 22.6523 149.961 22.8125 149.625 22.8125ZM144.422 20.6211H145.605C146.105 20.6211 146.355 20.3906 146.355 19.9297C146.355 19.5078 146.234 19.1641 145.992 18.8984C145.75 18.6328 145.434 18.5 145.043 18.5C144.605 18.5 144.262 18.6719 144.012 19.0156C143.777 19.3359 143.66 19.6602 143.66 19.9883C143.66 20.2227 143.715 20.3867 143.824 20.4805C143.941 20.5742 144.141 20.6211 144.422 20.6211ZM156.586 11.8086C159.023 11.8086 160.242 12.3125 160.242 13.3203C160.242 13.5938 160.18 13.8164 160.055 13.9883C159.93 14.1602 159.691 14.3516 159.34 14.5625C159.035 14.75 158.84 14.9961 158.754 15.3008C158.676 15.6055 158.637 16.2227 158.637 17.1523C158.637 17.6992 158.738 18.0352 158.941 18.1602C159.059 18.2383 159.234 18.2852 159.469 18.3008C159.711 18.3164 160.273 18.3242 161.156 18.3242C161.961 18.3242 162.461 18.2812 162.656 18.1953C162.852 18.1094 162.949 17.8945 162.949 17.5508C162.949 16.5195 162.902 15.8008 162.809 15.3945C162.715 14.9883 162.531 14.7109 162.258 14.5625C161.914 14.3672 161.688 14.2031 161.578 14.0703C161.469 13.9297 161.414 13.7461 161.414 13.5195C161.414 13.1992 161.535 12.9102 161.777 12.6523C162.02 12.3867 162.336 12.207 162.727 12.1133C163.539 11.918 164.559 11.8203 165.785 11.8203C167.223 11.8203 168.281 11.9531 168.961 12.2188C169.648 12.4766 169.992 12.8828 169.992 13.4375C169.992 13.9062 169.75 14.2578 169.266 14.4922C168.961 14.6328 168.762 14.7695 168.668 14.9023C168.574 15.0273 168.5 15.2656 168.445 15.6172C168.414 15.8125 168.375 16.6797 168.328 18.2188C168.281 19.7578 168.258 20.9805 168.258 21.8867C168.258 23.4727 168.316 24.4805 168.434 24.9102C168.496 25.1445 168.566 25.3008 168.645 25.3789C168.723 25.457 168.969 25.6133 169.383 25.8477C169.68 26.0117 169.828 26.2617 169.828 26.5977C169.828 27.1914 169.473 27.625 168.762 27.8984C168.059 28.1641 166.914 28.2969 165.328 28.2969C163.938 28.2969 162.91 28.1602 162.246 27.8867C161.645 27.6367 161.344 27.25 161.344 26.7266C161.344 26.2812 161.574 25.9336 162.035 25.6836C162.262 25.5586 162.414 25.4336 162.492 25.3086C162.578 25.1836 162.66 24.9531 162.738 24.6172C162.879 23.9609 162.949 23.1562 162.949 22.2031C162.949 21.7109 162.875 21.4062 162.727 21.2891C162.586 21.1719 162.211 21.1133 161.602 21.1133C160.203 21.1133 159.312 21.1914 158.93 21.3477C158.773 21.4102 158.676 21.5938 158.637 21.8984C158.59 22.2734 158.566 22.7344 158.566 23.2812C158.566 24.1719 158.691 24.8125 158.941 25.2031C159.027 25.3281 159.23 25.4883 159.551 25.6836C159.879 25.8711 160.043 26.1797 160.043 26.6094C160.043 27.1562 159.664 27.5742 158.906 27.8633C158.148 28.1523 157.066 28.2969 155.66 28.2969C154.379 28.2969 153.332 28.1641 152.52 27.8984C152.168 27.7812 151.891 27.6172 151.688 27.4062C151.492 27.1875 151.395 26.9492 151.395 26.6914C151.395 26.4336 151.457 26.2344 151.582 26.0938C151.707 25.9531 151.98 25.7734 152.402 25.5547C152.621 25.4453 152.773 25.3047 152.859 25.1328C152.953 24.9609 153.023 24.6719 153.07 24.2656C153.188 23.3516 153.246 22.1562 153.246 20.6797C153.246 20.4062 153.242 20.082 153.234 19.707C153.203 17.832 153.188 16.7617 153.188 16.4961C153.195 15.8242 153.137 15.3828 153.012 15.1719C152.895 14.9531 152.578 14.7148 152.062 14.457C151.719 14.293 151.547 14.0469 151.547 13.7188C151.547 12.9297 152.312 12.3828 153.844 12.0781C154.734 11.8984 155.648 11.8086 156.586 11.8086ZM178.02 16.3789C179.449 16.3789 180.703 16.75 181.781 17.4922C182.555 18.0234 183.176 18.7148 183.645 19.5664C184.129 20.457 184.371 21.3867 184.371 22.3555C184.371 24.0508 183.594 25.4922 182.039 26.6797C180.555 27.8125 178.855 28.3789 176.941 28.3789C175.074 28.3789 173.562 27.8477 172.406 26.7852C171.281 25.7539 170.719 24.4102 170.719 22.7539C170.719 20.9102 171.406 19.4023 172.781 18.2305C174.219 16.9961 175.965 16.3789 178.02 16.3789ZM177.082 19.0859C176.738 19.0859 176.461 19.2148 176.25 19.4727C176.047 19.7227 175.945 20.0586 175.945 20.4805C175.945 20.9492 176.031 21.5898 176.203 22.4023C176.383 23.207 176.594 23.9219 176.836 24.5469C177.078 25.1875 177.473 25.5078 178.02 25.5078C178.715 25.5078 179.062 25.0664 179.062 24.1836C179.062 23.5273 178.973 22.7812 178.793 21.9453C178.621 21.1094 178.41 20.4297 178.16 19.9062C177.902 19.375 177.543 19.1016 177.082 19.0859ZM192.047 17.3984V27.7812C192.047 28.8359 191.965 29.6484 191.801 30.2188C191.637 30.7891 191.355 31.2422 190.957 31.5781C190.551 31.9141 190.02 32.1836 189.363 32.3867C188.715 32.5977 188.055 32.7031 187.383 32.7031C186.617 32.7031 185.977 32.5508 185.461 32.2461C184.953 31.9414 184.699 31.5625 184.699 31.1094C184.699 30.9062 184.77 30.7305 184.91 30.582C185.059 30.4336 185.234 30.3594 185.438 30.3594C185.531 30.3594 185.656 30.3711 185.812 30.3945C185.969 30.418 186.066 30.4297 186.105 30.4297C186.246 30.4297 186.371 30.3633 186.48 30.2305C186.598 30.0977 186.656 29.9492 186.656 29.7852C186.656 29.707 186.645 29.5977 186.621 29.457C186.566 29.168 186.539 28.8984 186.539 28.6484V21.207C186.539 20.8555 186.477 20.582 186.352 20.3867C186.234 20.1914 186.027 20.0352 185.73 19.918C185.285 19.7383 185.062 19.4688 185.062 19.1094C185.062 18.6953 185.242 18.3398 185.602 18.043C185.961 17.7383 186.547 17.457 187.359 17.1992C187.938 17.0195 188.641 16.8516 189.469 16.6953C190.297 16.5391 190.91 16.4609 191.309 16.4609C191.582 16.4609 191.773 16.5312 191.883 16.6719C191.992 16.8125 192.047 17.0547 192.047 17.3984ZM189.562 12.0664C190.242 12.0664 190.781 12.1953 191.18 12.4531C191.578 12.7031 191.777 13.043 191.777 13.4727C191.777 14.0742 191.477 14.5508 190.875 14.9023C189.922 15.457 188.77 15.7344 187.418 15.7344C186.855 15.7344 186.402 15.625 186.059 15.4062C185.605 15.1172 185.379 14.7266 185.379 14.2344C185.379 13.5625 185.859 13.0352 186.82 12.6523C187.797 12.2617 188.711 12.0664 189.562 12.0664ZM204.914 22.8125H199.406C199.164 22.8125 199.043 22.918 199.043 23.1289C199.043 23.6367 199.316 24.1172 199.863 24.5703C200.418 25.0156 201.012 25.2383 201.645 25.2383C202.02 25.2383 202.434 25.168 202.887 25.0273C203.348 24.8789 203.727 24.6992 204.023 24.4883C204.289 24.3008 204.5 24.207 204.656 24.207C204.859 24.207 205.059 24.332 205.254 24.582C205.449 24.832 205.547 25.0898 205.547 25.3555C205.547 25.918 205.195 26.4609 204.492 26.9844C203.25 27.9141 201.816 28.3789 200.191 28.3789C198.551 28.3789 197.176 27.9023 196.066 26.9492C195.527 26.4805 195.082 25.9141 194.73 25.25C194.27 24.3672 194.039 23.4375 194.039 22.4609C194.039 21.1484 194.438 19.9688 195.234 18.9219C195.922 18.0156 196.797 17.3398 197.859 16.8945C198.656 16.5586 199.52 16.3906 200.449 16.3906C201.934 16.3906 203.195 16.8125 204.234 17.6562C204.758 18.0781 205.18 18.5781 205.5 19.1562C205.867 19.8125 206.051 20.4531 206.051 21.0781C206.051 21.5859 205.945 22.0039 205.734 22.332C205.523 22.6523 205.25 22.8125 204.914 22.8125ZM199.711 20.6211H200.895C201.395 20.6211 201.645 20.3906 201.645 19.9297C201.645 19.5078 201.523 19.1641 201.281 18.8984C201.039 18.6328 200.723 18.5 200.332 18.5C199.895 18.5 199.551 18.6719 199.301 19.0156C199.066 19.3359 198.949 19.6602 198.949 19.9883C198.949 20.2227 199.004 20.3867 199.113 20.4805C199.23 20.5742 199.43 20.6211 199.711 20.6211Z" fill="#FFE500"/>
<path d="M53.4258 22.543L53.9258 22.5484V22.543H53.4258ZM53.2617 14.8672L52.8145 15.0908L52.8178 15.0973L53.2617 14.8672ZM52.3711 14.3398L52.2323 14.8202L52.2389 14.822L52.3711 14.3398ZM54.4453 12.2305L54.4295 12.7302L54.4374 12.7305H54.4453V12.2305ZM55.1484 12.2305L55.1484 12.7305L55.1514 12.7305L55.1484 12.2305ZM57.4219 12.207L57.4397 12.7067L57.448 12.7064L57.4563 12.7058L57.4219 12.207ZM59.8125 11.9961L59.858 12.4941L59.8639 12.4934L59.8125 11.9961ZM64.4766 12.7109L64.2447 13.1539L64.2458 13.1545L64.4766 12.7109ZM65.2617 20.8555L65.5698 21.2493L65.5713 21.2481L65.2617 20.8555ZM59.5664 22.1211L59.6117 21.6231L59.6029 21.6224L59.5664 22.1211ZM58.6289 22.543H58.1289V22.5536L58.1294 22.5643L58.6289 22.543ZM58.7109 24.4648L59.2105 24.444L59.2105 24.4435L58.7109 24.4648ZM58.9102 25.3086L58.4862 25.5736L58.4927 25.584L58.4997 25.5941L58.9102 25.3086ZM59.6602 25.8711L59.8972 25.4308L59.8911 25.4276L59.6602 25.8711ZM52.8398 25.7305L53.0665 26.1762L53.0732 26.1727L52.8398 25.7305ZM58.9102 19.4258L59.1275 18.9755L59.1231 18.9734L58.9102 19.4258ZM61.0664 19.1562L60.7504 18.7687L60.7489 18.77L61.0664 19.1562ZM60.9375 14.8672L60.6322 15.2632L60.6342 15.2647L60.9375 14.8672ZM53.9258 22.543V16.3789H52.9258V22.543H53.9258ZM53.9258 16.3789C53.9258 15.9714 53.9119 15.6263 53.8818 15.3494C53.8537 15.0897 53.8061 14.8308 53.7056 14.637L52.8178 15.0973C52.8171 15.096 52.8205 15.1024 52.8263 15.1196C52.832 15.1365 52.8388 15.1602 52.8462 15.1922C52.861 15.2568 52.8754 15.344 52.8877 15.4573C52.9123 15.6842 52.9258 15.9896 52.9258 16.3789H53.9258ZM53.7089 14.6436C53.597 14.4198 53.4104 14.2587 53.2118 14.1411C53.0119 14.0227 52.7708 13.931 52.5033 13.8576L52.2389 14.822C52.4557 14.8815 52.6053 14.9441 52.7023 15.0015C52.8005 15.0597 52.817 15.0958 52.8145 15.0908L53.7089 14.6436ZM52.5099 13.8595C52.2039 13.7711 52.028 13.6647 51.9336 13.5703C51.8522 13.4889 51.8164 13.4034 51.8164 13.2852H50.8164C50.8164 13.6669 50.9564 14.0072 51.2265 14.2774C51.4837 14.5345 51.8352 14.7055 52.2323 14.8202L52.5099 13.8595ZM51.8164 13.2852C51.8164 13.1049 51.8771 12.9951 52.0287 12.8993L51.4947 12.0538C51.0526 12.3331 50.8164 12.7623 50.8164 13.2852H51.8164ZM52.0287 12.8993C52.211 12.7842 52.5311 12.6953 53.0508 12.6953V11.6953C52.4455 11.6953 51.9062 11.794 51.4947 12.0538L52.0287 12.8993ZM53.0508 12.6953C53.2286 12.6953 53.6845 12.7067 54.4295 12.7302L54.4611 11.7307C53.7218 11.7074 53.2479 11.6953 53.0508 11.6953V12.6953ZM54.4453 12.7305H55.1484V11.7305H54.4453V12.7305ZM55.1514 12.7305C56.4437 12.7227 57.2115 12.7149 57.4397 12.7067L57.404 11.7073C57.1948 11.7148 56.4469 11.7226 55.1454 11.7305L55.1514 12.7305ZM57.4563 12.7058C57.69 12.6897 58.4943 12.6187 59.858 12.494L59.767 11.4982C58.3963 11.6235 57.6069 11.6931 57.3875 11.7082L57.4563 12.7058ZM59.8639 12.4934C60.3035 12.448 60.7 12.4258 61.0547 12.4258V11.4258C60.6593 11.4258 60.2278 11.4505 59.7611 11.4987L59.8639 12.4934ZM61.0547 12.4258C62.2662 12.4258 63.3254 12.6727 64.2447 13.1539L64.7084 12.268C63.6277 11.7023 62.4057 11.4258 61.0547 11.4258V12.4258ZM64.2458 13.1545C65.0495 13.5726 65.6283 14.0999 66.0089 14.7279C66.3895 15.356 66.5898 16.1146 66.5898 17.0234H67.5898C67.5898 15.9635 67.3546 15.019 66.8641 14.2096C66.3736 13.4001 65.6458 12.7556 64.7073 12.2674L64.2458 13.1545ZM66.5898 17.0234C66.5898 18.4689 66.0469 19.5996 64.9521 20.4628L65.5713 21.2481C66.914 20.1894 67.5898 18.7655 67.5898 17.0234H66.5898ZM64.9536 20.4617C63.9037 21.2831 62.6251 21.7031 61.0898 21.7031V22.7031C62.8202 22.7031 64.3229 22.2247 65.5698 21.2493L64.9536 20.4617ZM61.0898 21.7031C60.696 21.7031 60.2043 21.677 59.6117 21.6231L59.5211 22.619C60.1316 22.6745 60.6555 22.7031 61.0898 22.7031V21.7031ZM59.6029 21.6224C59.2897 21.5995 59.0694 21.5859 58.9688 21.5859V22.5859C59.0244 22.5859 59.2025 22.5958 59.5299 22.6198L59.6029 21.6224ZM58.9688 21.5859C58.7604 21.5859 58.5179 21.6482 58.3383 21.8526C58.1695 22.0446 58.1289 22.2814 58.1289 22.4727H59.1289C59.1289 22.4061 59.1449 22.4495 59.0894 22.5127C59.0607 22.5454 59.0266 22.5665 58.9974 22.5776C58.9712 22.5876 58.9583 22.5859 58.9688 22.5859V21.5859ZM58.1289 22.4727V22.543H59.1289V22.4727H58.1289ZM58.1294 22.5643L58.2114 24.4862L59.2105 24.4435L59.1285 22.5216L58.1294 22.5643ZM58.2114 24.4857C58.2284 24.8942 58.3013 25.2779 58.4862 25.5736L59.3342 25.0436C59.2846 24.9643 59.2247 24.7855 59.2105 24.444L58.2114 24.4857ZM58.4997 25.5941C58.6966 25.8772 59.0375 26.1105 59.4292 26.3146L59.8911 25.4276C59.5328 25.241 59.3737 25.0994 59.3206 25.0231L58.4997 25.5941ZM59.4231 26.3113C59.9004 26.5683 59.9219 26.7375 59.9219 26.7617H60.9219C60.9219 26.1453 60.4356 25.7207 59.8972 25.4309L59.4231 26.3113ZM59.9219 26.7617C59.9219 26.9237 59.8215 27.1822 59.13 27.4271L59.4638 28.3698C60.2722 28.0834 60.9219 27.5841 60.9219 26.7617H59.9219ZM59.13 27.4271C58.4589 27.6648 57.4626 27.7969 56.1094 27.7969V28.7969C57.5061 28.7969 58.6349 28.6633 59.4638 28.3698L59.13 27.4271ZM56.1094 27.7969C54.6792 27.7969 53.6624 27.6725 53.0197 27.4519C52.3705 27.229 52.2734 26.9811 52.2734 26.8086H51.2734C51.2734 27.6282 51.899 28.1245 52.6951 28.3977C53.4978 28.6732 54.6489 28.7969 56.1094 28.7969V27.7969ZM52.2734 26.8086C52.2734 26.6621 52.3107 26.6268 52.3145 26.6231L51.6074 25.916C51.3611 26.1622 51.2734 26.4863 51.2734 26.8086H52.2734ZM52.3145 26.6231C52.3341 26.6034 52.3977 26.552 52.5358 26.4672C52.6669 26.3869 52.8426 26.29 53.0665 26.1762L52.6132 25.2848C52.3762 25.4053 52.1749 25.5155 52.013 25.6148C51.8582 25.7097 51.7127 25.8106 51.6074 25.916L52.3145 26.6231ZM53.0732 26.1727C53.4636 25.9666 53.7457 25.6421 53.8244 25.1963L52.8396 25.0225C52.8246 25.1079 52.7786 25.1974 52.6065 25.2883L53.0732 26.1727ZM53.8244 25.1963C53.855 25.0232 53.8749 24.7073 53.8903 24.2868C53.9061 23.8529 53.9179 23.2728 53.9258 22.5484L52.9258 22.5376C52.918 23.2584 52.9064 23.8288 52.891 24.2503C52.8751 24.6853 52.856 24.9299 52.8396 25.0225L53.8244 25.1963ZM58.2109 14.8906V18.875H59.2109V14.8906H58.2109ZM58.2109 18.875C58.2109 19.0565 58.2298 19.2432 58.2906 19.4113C58.3534 19.5851 58.4756 19.7739 58.6973 19.8782L59.1231 18.9734C59.1633 18.9923 59.1929 19.0185 59.2116 19.0416C59.2289 19.0629 59.2328 19.0764 59.2309 19.0711C59.229 19.0658 59.2235 19.0481 59.2188 19.0134C59.2142 18.9792 59.2109 18.9337 59.2109 18.875H58.2109ZM58.6928 19.8761C59.0072 20.0279 59.3727 20.0898 59.7656 20.0898V19.0898C59.4711 19.0898 59.2662 19.0424 59.1275 18.9755L58.6928 19.8761ZM59.7656 20.0898C60.3808 20.0898 60.9311 19.9148 61.384 19.5425L60.7489 18.77C60.4986 18.9758 60.1817 19.0898 59.7656 19.0898V20.0898ZM61.3824 19.5438C62.0547 18.9956 62.3281 18.1217 62.3281 17.0703H61.3281C61.3281 17.9721 61.0938 18.4888 60.7504 18.7687L61.3824 19.5438ZM62.3281 17.0703C62.3281 15.959 61.9996 15.0488 61.2408 14.4697L60.6342 15.2647C61.0629 15.5918 61.3281 16.1504 61.3281 17.0703H62.3281ZM61.2428 14.4712C60.7697 14.1065 60.2056 13.9336 59.5781 13.9336V14.9336C60.0131 14.9336 60.3553 15.0497 60.6322 15.2632L61.2428 14.4712ZM59.5781 13.9336C59.2614 13.9336 58.9469 13.9726 58.6946 14.1055C58.5611 14.1759 58.4343 14.2784 58.3426 14.4234C58.2496 14.5703 58.2109 14.7322 58.2109 14.8906H59.2109C59.2109 14.8967 59.2084 14.9253 59.1877 14.9579C59.1682 14.9887 59.1499 14.996 59.1609 14.9902C59.1743 14.9831 59.2115 14.9676 59.2852 14.9546C59.3578 14.9419 59.4542 14.9336 59.5781 14.9336V13.9336ZM73.3477 16.4609L73.3477 15.9609L73.343 15.961L73.3477 16.4609ZM74.0977 16.6367L73.6945 16.9324L73.7007 16.9409L73.7072 16.9491L74.0977 16.6367ZM74.3438 17.7617L73.8468 17.8169L73.8469 17.8182L74.3438 17.7617ZM75.1523 17.9375L74.7312 17.6679L74.7275 17.6738L75.1523 17.9375ZM79.3477 17.1641L79.7074 16.8168L79.7042 16.8135L79.3477 17.1641ZM79.8867 18.043L79.4211 18.2252L79.4225 18.2287L79.8867 18.043ZM79.8398 20.1992L80.296 20.404L80.2975 20.4006L79.8398 20.1992ZM79.1719 21.1484L78.8344 20.7793L78.8269 20.7865L79.1719 21.1484ZM76.3242 21.6523L76.0903 22.0943L76.0955 22.097L76.3242 21.6523ZM75.2695 20.7969L74.916 21.1504L74.9192 21.1536L75.2695 20.7969ZM74.3789 20.9258L73.8975 20.7904L73.8948 20.8008L74.3789 20.9258ZM74.4141 24.8867L73.9238 24.9848L73.9253 24.9926L73.9271 25.0003L74.4141 24.8867ZM74.6367 25.3789L74.2832 25.7325L74.2979 25.7472L74.3137 25.7606L74.6367 25.3789ZM75.2695 25.6484L75.4132 25.1695L75.41 25.1686L75.2695 25.6484ZM75.9844 27.5938L76.3439 27.9413L76.3495 27.9353L75.9844 27.5938ZM68.625 27.9336L68.4634 28.4068L68.4653 28.4074L68.625 27.9336ZM68.3672 25.707L68.0931 25.2887L68.0851 25.2942L68.3672 25.707ZM68.8359 25.3086L69.2391 25.6043L69.2436 25.5981L69.248 25.5919L68.8359 25.3086ZM69.0117 24.8047L68.5191 24.7181L68.5171 24.7314L69.0117 24.8047ZM69.082 20.1055L68.6347 20.3291L68.6396 20.3383L69.082 20.1055ZM68.6133 19.7305L68.799 19.2662L68.7967 19.2653L68.6133 19.7305ZM68.3555 17.8203L68.6405 18.2311L68.6461 18.2272L68.3555 17.8203ZM70.2773 17.0117L70.4191 17.4912L70.4204 17.4908L70.2773 17.0117ZM73.3477 16.9609C73.5366 16.9609 73.6596 16.9748 73.7316 16.9917C73.7666 16.9999 73.7764 17.0058 73.7706 17.0028C73.7648 16.9998 73.7297 16.9804 73.6945 16.9324L74.5009 16.341C74.3505 16.136 74.1206 16.0558 73.9598 16.0181C73.7818 15.9763 73.5728 15.9609 73.3477 15.9609V16.9609ZM73.7072 16.9491C73.6795 16.9145 73.6799 16.8991 73.6949 16.9411C73.7072 16.9757 73.7232 17.0311 73.741 17.1127C73.7767 17.2757 73.8125 17.5082 73.8468 17.8169L74.8407 17.7065C74.8047 17.3824 74.7643 17.111 74.7179 16.899C74.6948 16.7931 74.6682 16.6933 74.6366 16.6048C74.6077 16.5237 74.5627 16.4176 74.4881 16.3244L73.7072 16.9491ZM73.8469 17.8182C73.8705 18.0256 73.9246 18.2512 74.0551 18.4364C74.2054 18.6498 74.4362 18.7773 74.707 18.7773V17.7773C74.729 17.7773 74.7652 17.7826 74.8043 17.8034C74.8427 17.8237 74.8642 17.8486 74.8726 17.8605C74.8795 17.8703 74.8746 17.867 74.8659 17.839C74.8574 17.8115 74.8477 17.7683 74.8406 17.7053L73.8469 17.8182ZM74.707 18.7773C75.1316 18.7773 75.4107 18.4694 75.5772 18.2012L74.7275 17.6738C74.703 17.7133 74.6818 17.742 74.6645 17.7622C74.6472 17.7826 74.6361 17.792 74.6322 17.7949C74.6287 17.7976 74.634 17.7928 74.6485 17.7874C74.6639 17.7817 74.6842 17.7773 74.707 17.7773V18.7773ZM75.5735 18.207C76.1228 17.3487 76.7923 16.9727 77.6016 16.9727V15.9727C76.3952 15.9727 75.4319 16.5732 74.7312 17.668L75.5735 18.207ZM77.6016 16.9727C78.1932 16.9727 78.6418 17.1593 78.9911 17.5146L79.7042 16.8135C79.1472 16.2469 78.4318 15.9727 77.6016 15.9727V16.9727ZM78.988 17.5114C79.1518 17.681 79.2993 17.9138 79.4211 18.2252L80.3523 17.8608C80.1929 17.4534 79.981 17.1002 79.7074 16.8168L78.988 17.5114ZM79.4225 18.2287C79.5431 18.5302 79.5977 18.807 79.5977 19.0625H80.5977C80.5977 18.6618 80.5116 18.2589 80.351 17.8573L79.4225 18.2287ZM79.5977 19.0625C79.5977 19.35 79.5306 19.6605 79.3822 19.9978L80.2975 20.4006C80.4928 19.9567 80.5977 19.5094 80.5977 19.0625H79.5977ZM79.3837 19.9944C79.2361 20.3232 79.0513 20.5812 78.8345 20.7794L79.5093 21.5175C79.8393 21.2157 80.0998 20.8409 80.296 20.404L79.3837 19.9944ZM78.8269 20.7865C78.4251 21.1695 77.9375 21.3633 77.332 21.3633V22.3633C78.1797 22.3633 78.9187 22.0805 79.5168 21.5104L78.8269 20.7865ZM77.332 21.3633C76.9904 21.3633 76.7378 21.3028 76.5529 21.2077L76.0955 22.097C76.4575 22.2831 76.8768 22.3633 77.332 22.3633V21.3633ZM76.5582 21.2104C76.3598 21.1055 76.0509 20.8635 75.6199 20.4402L74.9192 21.1536C75.3631 21.5896 75.7573 21.918 76.0903 22.0942L76.5582 21.2104ZM75.6231 20.4433C75.4231 20.2434 75.1497 20.0508 74.8125 20.0508V21.0508C74.7831 21.0508 74.7753 21.0418 74.7952 21.0525C74.8167 21.0642 74.8574 21.0919 74.916 21.1504L75.6231 20.4433ZM74.8125 20.0508C74.6015 20.0508 74.3891 20.114 74.213 20.2663C74.0444 20.4121 73.95 20.604 73.8976 20.7904L74.8602 21.0612C74.8781 20.9975 74.8912 21.0019 74.8671 21.0227C74.8547 21.0334 74.8396 21.042 74.825 21.047C74.8114 21.0517 74.8056 21.0508 74.8125 21.0508V20.0508ZM73.8948 20.8008C73.8136 21.1155 73.7852 21.697 73.7852 22.4727H74.7852C74.7852 21.6702 74.8193 21.2204 74.863 21.0507L73.8948 20.8008ZM73.7852 22.4727C73.7852 23.6479 73.8268 24.4998 73.9238 24.9848L74.9044 24.7887C74.8295 24.4142 74.7852 23.6567 74.7852 22.4727H73.7852ZM73.9271 25.0003C73.9882 25.2619 74.0889 25.5382 74.2832 25.7325L74.9903 25.0254C74.9983 25.0333 74.9869 25.025 74.9663 24.9795C74.9463 24.9352 74.9232 24.8684 74.901 24.7731L73.9271 25.0003ZM74.3137 25.7606C74.4206 25.851 74.5518 25.9182 74.6752 25.9708C74.8048 26.026 74.9577 26.0782 75.1291 26.1283L75.41 25.1686C75.261 25.125 75.1483 25.0853 75.067 25.0507C74.9794 25.0134 74.9544 24.9927 74.9597 24.9972L74.3137 25.7606ZM75.1259 26.1274C75.4291 26.2183 75.6041 26.3283 75.6994 26.4278C75.7832 26.5153 75.8242 26.6129 75.8242 26.75H76.8242C76.8242 26.3637 76.6895 26.0159 76.4217 25.7362C76.1654 25.4686 75.8131 25.2895 75.4132 25.1695L75.1259 26.1274ZM75.8242 26.75C75.8242 26.9386 75.7625 27.099 75.6192 27.2522L76.3495 27.9353C76.6593 27.6041 76.8242 27.202 76.8242 26.75H75.8242ZM75.6249 27.2462C75.4795 27.3966 75.2745 27.5117 74.9801 27.573L75.184 28.552C75.6396 28.4571 76.0361 28.2596 76.3439 27.9413L75.6249 27.2462ZM74.9801 27.573C74.2813 27.7186 73.2209 27.7969 71.7773 27.7969V28.7969C73.2401 28.7969 74.3828 28.7189 75.184 28.552L74.9801 27.573ZM71.7773 27.7969C70.4119 27.7969 69.4258 27.6758 68.7847 27.4598L68.4653 28.4074C69.2617 28.6757 70.3772 28.7969 71.7773 28.7969V27.7969ZM68.7866 27.4604C68.5219 27.37 68.3703 27.2621 68.2861 27.1626C68.2091 27.0714 68.1641 26.9592 68.1641 26.7969H67.1641C67.1641 27.1736 67.2792 27.5204 67.5225 27.8081C67.7586 28.0875 68.0875 28.2784 68.4634 28.4068L68.7866 27.4604ZM68.1641 26.7969C68.1641 26.6161 68.2581 26.3871 68.6493 26.1199L68.0851 25.2942C67.5387 25.6675 67.1641 26.1652 67.1641 26.7969H68.1641ZM68.6412 26.1253C68.8823 25.9673 69.0993 25.795 69.2391 25.6043L68.4327 25.0129C68.4007 25.0566 68.3052 25.1499 68.0932 25.2888L68.6412 26.1253ZM69.248 25.5919C69.3909 25.3839 69.4681 25.1356 69.5063 24.878L68.5171 24.7314C68.4928 24.8956 68.4528 24.9833 68.4239 25.0253L69.248 25.5919ZM69.5042 24.8913C69.6377 24.1316 69.6992 22.7739 69.6992 20.8555H68.6992C68.6992 22.7808 68.6357 24.0559 68.5193 24.7181L69.5042 24.8913ZM69.6992 20.8555C69.6992 20.4932 69.6634 20.1364 69.5245 19.8726L68.6396 20.3383C68.657 20.3714 68.6992 20.5146 68.6992 20.8555H69.6992ZM69.5292 19.8819C69.3763 19.576 69.0972 19.3855 68.799 19.2662L68.4276 20.1947C68.5981 20.2629 68.6315 20.3224 68.6348 20.3291L69.5292 19.8819ZM68.7967 19.2653C68.3335 19.0826 68.2812 18.9006 68.2812 18.7812H67.2812C67.2812 19.4901 67.7837 19.9408 68.4298 20.1956L68.7967 19.2653ZM68.2812 18.7812C68.2812 18.6103 68.3555 18.4288 68.6405 18.2311L68.0704 17.4095C67.5898 17.743 67.2812 18.2022 67.2812 18.7812H68.2812ZM68.6461 18.2272C68.9582 18.0043 69.532 17.7535 70.4191 17.4912L70.1356 16.5322C69.2258 16.8012 68.5184 17.0895 68.0648 17.4134L68.6461 18.2272ZM70.4204 17.4908C71.5983 17.139 72.5723 16.9681 73.3523 16.9609L73.343 15.961C72.4355 15.9694 71.3627 16.1657 70.1342 16.5326L70.4204 17.4908ZM90.6328 17.4102L90.9288 17.0071L90.9269 17.0058L90.6328 17.4102ZM91.6758 18.6758L91.213 18.8654L91.217 18.8746L91.6758 18.6758ZM91.9805 20.6211L92.4805 20.6278V20.6211H91.9805ZM91.957 22.3672L91.457 22.3605V22.3672H91.957ZM92.2148 24.7227L91.7637 24.9384L91.7676 24.9463L92.2148 24.7227ZM92.8711 26.8438L92.4711 26.5437L92.4674 26.5487L92.8711 26.8438ZM91.7109 27.8633L91.4621 27.4296L91.4579 27.432L91.7109 27.8633ZM87.9258 27.5352L87.5367 27.8494L87.5443 27.8584L87.9258 27.5352ZM86.8477 27.5234L87.1425 27.9273L87.1496 27.922L86.8477 27.5234ZM81.7031 27.7227L81.4169 28.1326L81.4188 28.1339L81.7031 27.7227ZM80.7188 26.5977L80.2745 26.8272L80.2761 26.8302L80.7188 26.5977ZM81.3398 22.9766L81.6847 23.3386L81.6865 23.3369L81.3398 22.9766ZM85.9336 21.4883L85.9336 20.9883L85.9317 20.9883L85.9336 21.4883ZM86.7891 21.3594L87.0847 21.7626L87.0932 21.7564L87.1014 21.7498L86.7891 21.3594ZM86.707 18.9336L86.2525 19.1419L86.2542 19.1456L86.707 18.9336ZM85.2305 18.582L84.9304 18.1819L84.9223 18.1883L85.2305 18.582ZM84.5508 19.3555L84.1467 19.0608L84.1413 19.0685L84.5508 19.3555ZM81.5156 18.4883L81.1275 18.173L81.1236 18.1779L81.5156 18.4883ZM82.7461 17.5039L82.5118 17.0622L82.5067 17.065L82.7461 17.5039ZM86.3906 23.1641L86.4062 22.6643L86.3984 22.6641H86.3906V23.1641ZM85.4883 23.5859L85.1197 23.248L85.1146 23.2538L85.4883 23.5859ZM85.3828 25.5078L84.986 25.8121L84.9911 25.8185L85.3828 25.5078ZM86.8945 23.3984L86.4618 23.649L86.4666 23.6573L86.4718 23.6654L86.8945 23.3984ZM87.1758 16.8789C88.4473 16.8789 89.4922 17.1989 90.3387 17.8145L90.9269 17.0058C89.8828 16.2464 88.623 15.8789 87.1758 15.8789V16.8789ZM90.3369 17.8132C90.778 18.1371 91.0592 18.4899 91.2131 18.8654L92.1384 18.4862C91.9017 17.9086 91.4877 17.4176 90.9288 17.0072L90.3369 17.8132ZM91.217 18.8746C91.3812 19.2536 91.4805 19.824 91.4805 20.6211H92.4805C92.4805 19.7619 92.3766 19.0355 92.1346 18.477L91.217 18.8746ZM91.4805 20.6144L91.4571 22.3605L92.457 22.3739L92.4804 20.6278L91.4805 20.6144ZM91.457 22.3672C91.457 22.9824 91.4788 23.5012 91.5245 23.9187C91.5688 24.3234 91.6399 24.6794 91.7638 24.9384L92.6659 24.5069C92.6179 24.4066 92.5602 24.1903 92.5185 23.8099C92.4783 23.4422 92.457 22.963 92.457 22.3672H91.457ZM91.7676 24.9463C91.8583 25.1276 91.9934 25.3534 92.2037 25.4795L92.7182 24.622C92.7385 24.6342 92.749 24.6443 92.7508 24.646C92.7527 24.6479 92.7491 24.6447 92.7408 24.6336C92.7234 24.6104 92.6965 24.568 92.6621 24.499L91.7676 24.9463ZM92.2037 25.4795C92.3046 25.5401 92.4202 25.5768 92.5159 25.6019C92.6201 25.6291 92.7415 25.6527 92.8759 25.6737L93.0303 24.6857C92.9147 24.6676 92.8292 24.6502 92.7693 24.6345C92.7396 24.6267 92.7204 24.6205 92.7095 24.6164C92.6973 24.6119 92.7028 24.6128 92.7182 24.622L92.2037 25.4795ZM92.8759 25.6737C92.8923 25.6763 92.8907 25.6784 92.879 25.6721C92.8732 25.6689 92.8658 25.6641 92.8578 25.6573C92.8498 25.6505 92.8427 25.6429 92.8367 25.6351C92.8242 25.6187 92.8217 25.6079 92.8227 25.6115C92.824 25.6162 92.8281 25.6347 92.8281 25.6719H93.8281C93.8281 25.4608 93.783 25.227 93.6321 25.029C93.4745 24.8221 93.2523 24.7204 93.0303 24.6857L92.8759 25.6737ZM92.8281 25.6719C92.8281 25.9061 92.7336 26.1938 92.4711 26.5437L93.2711 27.1438C93.618 26.6812 93.8281 26.1876 93.8281 25.6719H92.8281ZM92.4674 26.5487C92.2155 26.8934 91.8835 27.1878 91.4621 27.4296L91.9598 28.297C92.4915 27.9919 92.9329 27.6066 93.2748 27.1388L92.4674 26.5487ZM91.4579 27.432C90.9439 27.7336 90.4173 27.8789 89.8711 27.8789V28.8789C90.6061 28.8789 91.3061 28.6805 91.9639 28.2945L91.4579 27.432ZM89.8711 27.8789C89.1791 27.8789 88.6774 27.6488 88.3073 27.2119L87.5443 27.8584C88.1273 28.5465 88.9225 28.8789 89.8711 28.8789V27.8789ZM88.3148 27.221C88.1314 26.994 87.8496 26.7305 87.4688 26.7305V27.7305C87.4145 27.7305 87.3926 27.7103 87.4111 27.7227C87.4314 27.7362 87.4742 27.7719 87.5368 27.8493L88.3148 27.221ZM87.4688 26.7305C87.1359 26.7305 86.8139 26.9217 86.5457 27.1249L87.1496 27.922C87.2612 27.8374 87.3473 27.7853 87.4096 27.7559C87.475 27.7251 87.4905 27.7305 87.4688 27.7305V26.7305ZM86.5529 27.1196C85.8595 27.6257 85.0766 27.8789 84.1875 27.8789V28.8789C85.2827 28.8789 86.2733 28.5618 87.1425 27.9273L86.5529 27.1196ZM84.1875 27.8789C83.2326 27.8789 82.5131 27.6748 81.9875 27.3114L81.4188 28.1339C82.1587 28.6455 83.0955 28.8789 84.1875 28.8789V27.8789ZM81.9893 27.3127C81.6429 27.0708 81.3676 26.7575 81.1614 26.3651L80.2761 26.8302C80.5543 27.3597 80.9352 27.7963 81.4169 28.1326L81.9893 27.3127ZM81.163 26.3681C80.956 25.9675 80.8555 25.5576 80.8555 25.1328H79.8555C79.8555 25.7236 79.9972 26.2903 80.2745 26.8272L81.163 26.3681ZM80.8555 25.1328C80.8555 24.4736 81.1149 23.8813 81.6847 23.3386L80.995 22.6145C80.2523 23.3219 79.8555 24.167 79.8555 25.1328H80.8555ZM81.6865 23.3369C82.5835 22.4741 83.9691 21.9958 85.9355 21.9883L85.9317 20.9883C83.82 20.9964 82.1431 21.5103 80.9932 22.6162L81.6865 23.3369ZM85.9336 21.9883C86.1727 21.9883 86.3848 21.9771 86.5618 21.9505C86.7203 21.9266 86.9234 21.8809 87.0847 21.7626L86.4934 20.9562C86.5224 20.9349 86.5372 20.9332 86.5171 20.9396C86.4996 20.9452 86.4665 20.9535 86.4128 20.9616C86.3047 20.9779 86.1476 20.9883 85.9336 20.9883V21.9883ZM87.1014 21.7498C87.2719 21.6134 87.3576 21.4269 87.4027 21.2647C87.4485 21.0998 87.4648 20.9157 87.4648 20.7266H86.4648C86.4648 20.8655 86.4519 20.951 86.4391 20.997C86.4256 21.0457 86.4234 21.0116 86.4767 20.9689L87.1014 21.7498ZM87.4648 20.7266C87.4648 19.886 87.3811 19.1941 87.1599 18.7216L86.2542 19.1456C86.3768 19.4074 86.4648 19.9109 86.4648 20.7266H87.4648ZM87.1616 18.7253C87.0455 18.4721 86.8778 18.2512 86.6445 18.0957C86.4096 17.939 86.1415 17.8711 85.8633 17.8711V18.8711C85.9757 18.8711 86.0436 18.8969 86.0898 18.9277C86.1378 18.9598 86.1967 19.0201 86.2525 19.1419L87.1616 18.7253ZM85.8633 17.8711C85.5207 17.8711 85.2045 17.9765 84.9305 18.182L85.5305 18.982C85.6314 18.9063 85.7371 18.8711 85.8633 18.8711V17.8711ZM84.9223 18.1883C84.6854 18.3737 84.4254 18.6787 84.1468 19.0609L84.9548 19.6501C85.223 19.2822 85.4162 19.0716 85.5386 18.9758L84.9223 18.1883ZM84.1413 19.0685C83.4824 20.0088 82.8867 20.3438 82.3711 20.3438V21.3438C83.3712 21.3438 84.2286 20.6865 84.9602 19.6424L84.1413 19.0685ZM82.3711 20.3438C82.0941 20.3438 81.9105 20.2653 81.7752 20.1388L81.092 20.869C81.4411 21.1956 81.8824 21.3438 82.3711 21.3438V20.3438ZM81.7752 20.1388C81.6455 20.0174 81.5703 19.8585 81.5703 19.6133H80.5703C80.5703 20.1024 80.7374 20.5373 81.092 20.869L81.7752 20.1388ZM81.5703 19.6133C81.5703 19.3788 81.6612 19.11 81.9076 18.7986L81.1236 18.1779C80.7763 18.6166 80.5703 19.0977 80.5703 19.6133H81.5703ZM81.9037 18.8036C82.1595 18.4887 82.515 18.1995 82.9855 17.9429L82.5067 17.065C81.9459 17.3708 81.4811 17.7379 81.1276 18.173L81.9037 18.8036ZM82.9804 17.9456C84.3253 17.2323 85.7217 16.8789 87.1758 16.8789V15.8789C85.5517 15.8789 83.995 16.2755 82.5118 17.0622L82.9804 17.9456ZM86.3906 22.6641C85.8905 22.6641 85.4607 22.8761 85.1197 23.2481L85.8569 23.9238C86.0315 23.7332 86.2033 23.6641 86.3906 23.6641V22.6641ZM85.1146 23.2538C84.7799 23.6303 84.6133 24.0858 84.6133 24.5938H85.6133C85.6133 24.3205 85.6967 24.1041 85.862 23.9181L85.1146 23.2538ZM84.6133 24.5938C84.6133 25.0487 84.7232 25.4692 84.986 25.812L85.7796 25.2036C85.6831 25.0777 85.6133 24.8888 85.6133 24.5938H84.6133ZM84.9911 25.8185C85.2685 26.1683 85.6529 26.3477 86.0977 26.3477V25.3477C85.9487 25.3477 85.8565 25.3004 85.7746 25.1971L84.9911 25.8185ZM86.0977 26.3477C86.5825 26.3477 86.9825 26.1263 87.2309 25.707C87.455 25.3289 87.5352 24.826 87.5352 24.2656H86.5352C86.5352 24.7599 86.459 25.0481 86.3706 25.1972C86.3066 25.3054 86.2378 25.3477 86.0977 25.3477V26.3477ZM87.5352 24.2656C87.5352 24.0351 87.5228 23.8266 87.4936 23.6465C87.4656 23.4741 87.4163 23.2883 87.3173 23.1314L86.4718 23.6654C86.4665 23.6571 86.4875 23.69 86.5064 23.8066C86.5241 23.9155 86.5352 24.0664 86.5352 24.2656H87.5352ZM87.3272 23.1479C87.119 22.7882 86.7431 22.6748 86.4062 22.6643L86.375 23.6638C86.4548 23.6663 86.488 23.6794 86.4932 23.6819C86.4948 23.6826 86.4897 23.6804 86.4818 23.6734C86.4737 23.6661 86.4667 23.6574 86.4618 23.649L87.3272 23.1479ZM101.402 24.5703L101.005 24.8737L101.01 24.8801L101.402 24.5703ZM103.5 24.5938L103.745 25.0297L103.757 25.0225L103.5 24.5938ZM103.805 26.9609L103.483 26.5777L103.48 26.5804L103.805 26.9609ZM96.7617 27.3242L96.4196 27.6889L96.4216 27.6908L96.7617 27.3242ZM95.5547 18.7812L95.1706 19.1013L95.1997 19.1363L95.2346 19.1654L95.5547 18.7812ZM93.5859 18.6055L93.1955 18.9178L93.2036 18.928L93.2122 18.9377L93.5859 18.6055ZM93.4922 17.5625L92.9925 17.5458L92.9922 17.5542V17.5625H93.4922ZM93.7617 17.0469L93.4956 16.6236L93.4933 16.625L93.7617 17.0469ZM99.1289 13.6719L98.895 13.23L98.8785 13.2387L98.8627 13.2486L99.1289 13.6719ZM100.957 13.707L100.541 13.9844L100.555 14.0047L100.57 14.0237L100.957 13.707ZM101.168 16.2734L100.814 16.627L100.824 16.6363L100.833 16.6451L101.168 16.2734ZM104.379 16.543L103.986 16.8519L103.991 16.859L103.997 16.8659L104.379 16.543ZM104.344 18.6875L104.739 18.9946L104.746 18.9841L104.344 18.6875ZM100.562 19.4609V23.4219H101.562V19.4609H100.562ZM100.562 23.4219C100.562 23.9718 100.696 24.4695 101.005 24.8736L101.8 24.267C101.655 24.0774 101.562 23.8094 101.562 23.4219H100.562ZM101.01 24.8801C101.333 25.2898 101.772 25.5156 102.293 25.5156V24.5156C102.096 24.5156 101.94 24.4446 101.795 24.2605L101.01 24.8801ZM102.293 25.5156C102.73 25.5156 103.226 25.3217 103.745 25.0295L103.255 24.158C102.774 24.4283 102.465 24.5156 102.293 24.5156V25.5156ZM103.757 25.0225C103.81 24.991 103.839 24.9883 103.852 24.9883V23.9883C103.63 23.9883 103.425 24.0559 103.243 24.165L103.757 25.0225ZM103.852 24.9883C103.838 24.9883 103.833 24.9824 103.846 24.9907C103.863 25.0023 103.902 25.0348 103.956 25.112L104.779 24.5443C104.576 24.2496 104.271 23.9883 103.852 23.9883V24.9883ZM103.956 25.112C104.056 25.2583 104.102 25.406 104.102 25.5664H105.102C105.102 25.1956 104.99 24.8511 104.779 24.5443L103.956 25.112ZM104.102 25.5664C104.102 25.8476 103.952 26.185 103.483 26.5778L104.126 27.3441C104.72 26.8462 105.102 26.254 105.102 25.5664H104.102ZM103.48 26.5804C102.469 27.442 101.243 27.8789 99.7734 27.8789V28.8789C101.46 28.8789 102.921 28.3705 104.129 27.3415L103.48 26.5804ZM99.7734 27.8789C98.6217 27.8789 97.7486 27.5578 97.1018 26.9577L96.4216 27.6908C97.2905 28.4969 98.4252 28.8789 99.7734 28.8789V27.8789ZM97.1038 26.9596C96.4587 26.3543 96.125 25.5588 96.125 24.5234H95.125C95.125 25.8006 95.5491 26.8722 96.4196 27.6889L97.1038 26.9596ZM96.125 24.5234V19.1094H95.125V24.5234H96.125ZM96.125 19.1094C96.125 19.0028 96.1185 18.8912 96.0963 18.7878C96.0783 18.7036 96.0309 18.5272 95.8748 18.3971L95.2346 19.1654C95.1748 19.1155 95.1457 19.0633 95.1336 19.0378C95.127 19.0239 95.1232 19.0131 95.1212 19.0069C95.1202 19.0036 95.1195 19.0012 95.1191 18.9997C95.1189 18.9989 95.1187 18.9983 95.1187 18.9979C95.1186 18.9975 95.1185 18.9973 95.1185 18.9973C95.1185 18.9973 95.1186 18.9975 95.1186 18.9979C95.1187 18.9982 95.1188 18.9987 95.1189 18.9994C95.1191 19.0008 95.1195 19.0028 95.1198 19.0055C95.1206 19.0109 95.1214 19.0184 95.1222 19.0282C95.1239 19.0482 95.125 19.0749 95.125 19.1094H96.125ZM95.9388 18.4612C95.8087 18.3051 95.6323 18.2577 95.5481 18.2396C95.4447 18.2175 95.3332 18.2109 95.2266 18.2109V19.2109C95.261 19.2109 95.2878 19.2121 95.3077 19.2137C95.3176 19.2145 95.3251 19.2154 95.3305 19.2161C95.3331 19.2165 95.3351 19.2168 95.3365 19.217C95.3372 19.2172 95.3377 19.2172 95.3381 19.2173C95.3384 19.2174 95.3386 19.2174 95.3386 19.2174C95.3386 19.2174 95.3384 19.2174 95.338 19.2173C95.3376 19.2172 95.337 19.217 95.3363 19.2168C95.3347 19.2164 95.3323 19.2158 95.3291 19.2147C95.3229 19.2128 95.3121 19.209 95.2982 19.2024C95.2726 19.1903 95.2204 19.1611 95.1706 19.1013L95.9388 18.4612ZM95.2266 18.2109H94.0195V19.2109H95.2266V18.2109ZM94.0195 18.2109C93.9754 18.2109 93.94 18.2092 93.9121 18.2066C93.884 18.2039 93.8672 18.2006 93.8594 18.1987C93.851 18.1967 93.8584 18.1976 93.8752 18.2061C93.8922 18.2148 93.9254 18.2347 93.9596 18.2733L93.2122 18.9377C93.3399 19.0813 93.5049 19.1417 93.623 19.1704C93.7485 19.2009 93.8848 19.2109 94.0195 19.2109V18.2109ZM93.9764 18.2931C94.0037 18.3273 94.0132 18.3533 94.014 18.3554C94.0152 18.3586 94.0121 18.3509 94.0079 18.3275C93.9994 18.2794 93.9922 18.1992 93.9922 18.0781H92.9922C92.9922 18.2305 93.0006 18.3749 93.0233 18.5026C93.0438 18.6174 93.0856 18.7805 93.1955 18.9178L93.9764 18.2931ZM93.9922 18.0781V17.5625H92.9922V18.0781H93.9922ZM93.9919 17.5792C93.9938 17.5215 94.0049 17.4964 94.0085 17.4894C94.0108 17.4851 94.0142 17.4788 94.0302 17.4687L93.4933 16.625C93.1594 16.8375 93.0048 17.1754 92.9925 17.5458L93.9919 17.5792ZM94.0279 17.4701L99.3951 14.0951L98.8627 13.2486L93.4956 16.6236L94.0279 17.4701ZM99.3629 14.1138C99.4052 14.0913 99.4837 14.0664 99.6211 14.0664V13.0664C99.3679 13.0664 99.1182 13.1118 98.895 13.23L99.3629 14.1138ZM99.6211 14.0664H100.57V13.0664H99.6211V14.0664ZM100.57 14.0664C100.6 14.0664 100.62 14.0682 100.633 14.0701C100.646 14.0719 100.648 14.0734 100.643 14.0715C100.637 14.0694 100.621 14.063 100.602 14.0484C100.581 14.0334 100.559 14.0121 100.541 13.9844L101.373 13.4297C101.166 13.1193 100.811 13.0664 100.57 13.0664V14.0664ZM100.57 14.0237C100.548 13.9971 100.54 13.9773 100.539 13.9752C100.538 13.9727 100.542 13.9801 100.546 14.0014C100.555 14.0456 100.562 14.1204 100.562 14.2344H101.562C101.562 14.0828 101.553 13.9368 101.526 13.8053C101.502 13.6812 101.453 13.5241 101.344 13.3904L100.57 14.0237ZM100.562 14.2344V15.8164H101.562V14.2344H100.562ZM100.562 15.8164C100.562 15.9547 100.572 16.0925 100.602 16.2189C100.629 16.3385 100.685 16.4978 100.814 16.627L101.522 15.9199C101.553 15.9512 101.568 15.9792 101.574 15.9913C101.579 16.0033 101.579 16.0059 101.576 15.994C101.57 15.9681 101.562 15.9125 101.562 15.8164H100.562ZM100.833 16.6451C100.963 16.7619 101.118 16.8142 101.239 16.8409C101.367 16.8689 101.507 16.8789 101.648 16.8789V15.8789C101.548 15.8789 101.486 15.8713 101.454 15.8642C101.439 15.8608 101.437 15.8591 101.444 15.8624C101.452 15.8656 101.475 15.8768 101.502 15.9018L100.833 16.6451ZM101.648 16.8789H103.816V15.8789H101.648V16.8789ZM103.816 16.8789C103.934 16.8789 104.002 16.8906 104.034 16.8999C104.067 16.9095 104.029 16.9064 103.986 16.8519L104.772 16.2341C104.643 16.0702 104.469 15.985 104.314 15.9399C104.158 15.8946 103.988 15.8789 103.816 15.8789V16.8789ZM103.997 16.8659C103.975 16.8395 103.969 16.8216 103.971 16.8266C103.972 16.8309 103.978 16.8474 103.985 16.8809C103.998 16.9494 104.008 17.0564 104.008 17.2109H105.008C105.008 17.0217 104.996 16.8455 104.967 16.6914C104.939 16.5478 104.885 16.3673 104.761 16.22L103.997 16.8659ZM104.008 17.2109V17.9023H105.008V17.2109H104.008ZM104.008 17.9023C104.008 18.0681 103.996 18.1908 103.977 18.2776C103.959 18.3674 103.939 18.3944 103.941 18.3909L104.746 18.9841C104.957 18.6975 105.008 18.2927 105.008 17.9023H104.008ZM103.949 18.3805C103.963 18.3622 103.972 18.3649 103.946 18.3742C103.915 18.385 103.853 18.3984 103.746 18.3984V19.3984C104.094 19.3984 104.488 19.3165 104.738 18.9945L103.949 18.3805ZM103.746 18.3984H101.625V19.3984H103.746V18.3984ZM101.625 18.3984C101.387 18.3984 101.056 18.4326 100.826 18.6621L101.533 19.3692C101.49 19.4125 101.456 19.4166 101.477 19.4113C101.496 19.4062 101.542 19.3984 101.625 19.3984V18.3984ZM100.826 18.6621C100.597 18.8916 100.562 19.2229 100.562 19.4609H101.562C101.562 19.3779 101.57 19.332 101.575 19.3128C101.581 19.2924 101.577 19.3259 101.533 19.3692L100.826 18.6621ZM116.086 17.4922L115.802 17.904L115.803 17.9043L116.086 17.4922ZM117.949 19.5664L118.388 19.3275L118.387 19.3253L117.949 19.5664ZM116.344 26.6797L116.647 27.0772L116.647 27.077L116.344 26.6797ZM106.711 26.7852L107.049 26.417L107.049 26.4166L106.711 26.7852ZM107.086 18.2305L107.41 18.611L107.412 18.6098L107.086 18.2305ZM111.387 19.0859L111.404 18.5862L111.395 18.5859H111.387V19.0859ZM110.555 19.4727L110.168 19.156L110.167 19.1574L110.555 19.4727ZM110.508 22.4023L110.019 22.5058L110.02 22.5113L110.508 22.4023ZM111.141 24.5469L111.608 24.3701L111.607 24.3662L111.141 24.5469ZM113.098 21.9453L112.608 22.046L112.609 22.0504L113.098 21.9453ZM112.465 19.9062L112.916 19.6908L112.915 19.688L112.465 19.9062ZM112.324 16.8789C113.662 16.8789 114.815 17.2246 115.802 17.904L116.369 17.0803C115.2 16.2754 113.845 15.8789 112.324 15.8789V16.8789ZM115.803 17.9043C116.51 18.3898 117.079 19.0217 117.511 19.8075L118.387 19.3253C117.882 18.408 117.209 17.6571 116.369 17.08L115.803 17.9043ZM117.51 19.8053C117.956 20.6261 118.176 21.4741 118.176 22.3555H119.176C119.176 21.2993 118.911 20.2879 118.388 19.3275L117.51 19.8053ZM118.176 22.3555C118.176 23.8696 117.493 25.1729 116.04 26.2823L116.647 27.077C118.304 25.8115 119.176 24.2319 119.176 22.3555H118.176ZM116.04 26.2822C114.646 27.3467 113.054 27.8789 111.246 27.8789V28.8789C113.267 28.8789 115.073 28.2783 116.647 27.0772L116.04 26.2822ZM111.246 27.8789C109.479 27.8789 108.096 27.3791 107.049 26.417L106.373 27.1533C107.638 28.3162 109.279 28.8789 111.246 28.8789V27.8789ZM107.049 26.4166C106.037 25.4887 105.523 24.2834 105.523 22.7539H104.523C104.523 24.5369 105.135 26.0191 106.373 27.1537L107.049 26.4166ZM105.523 22.7539C105.523 21.0531 106.149 19.6857 107.41 18.611L106.762 17.8499C105.273 19.119 104.523 20.7672 104.523 22.7539H105.523ZM107.412 18.6098C108.751 17.4601 110.378 16.8789 112.324 16.8789V15.8789C110.161 15.8789 108.296 16.5321 106.76 17.8511L107.412 18.6098ZM111.387 18.5859C110.899 18.5859 110.477 18.7779 110.168 19.156L110.942 19.7893C111.054 19.6518 111.187 19.5859 111.387 19.5859V18.5859ZM110.167 19.1574C109.871 19.5208 109.75 19.9797 109.75 20.4805H110.75C110.75 20.1375 110.832 19.9245 110.943 19.788L110.167 19.1574ZM109.75 20.4805C109.75 21.0008 109.844 21.681 110.019 22.5058L110.997 22.2989C110.828 21.4986 110.75 20.8976 110.75 20.4805H109.75ZM110.02 22.5113C110.204 23.3351 110.421 24.0746 110.674 24.7275L111.607 24.3662C111.375 23.7691 111.171 23.079 110.996 22.2934L110.02 22.5113ZM110.673 24.7237C110.815 25.099 111.017 25.4238 111.303 25.6558C111.596 25.8939 111.945 26.0078 112.324 26.0078V25.0078C112.156 25.0078 112.034 24.9615 111.933 24.8794C111.825 24.7911 111.709 24.6354 111.608 24.3701L110.673 24.7237ZM112.324 26.0078C112.785 26.0078 113.208 25.8556 113.499 25.4861C113.772 25.1394 113.867 24.6771 113.867 24.1836H112.867C112.867 24.5729 112.788 24.7727 112.714 24.8674C112.657 24.9394 112.559 25.0078 112.324 25.0078V26.0078ZM113.867 24.1836C113.867 23.4833 113.772 22.7009 113.586 21.8402L112.609 22.0504C112.783 22.8616 112.867 23.5714 112.867 24.1836H113.867ZM113.587 21.8446C113.411 20.9858 113.19 20.2635 112.916 19.6908L112.014 20.1217C112.24 20.5959 112.441 21.233 112.608 22.046L113.587 21.8446ZM112.915 19.688C112.603 19.0448 112.104 18.61 111.404 18.5862L111.37 19.5857C111.591 19.5932 111.811 19.7052 112.015 20.1245L112.915 19.688ZM121.969 28.1328L121.93 27.6343L121.928 27.6345L121.969 28.1328ZM119.613 26.2344L119.251 25.89L119.25 25.8905L119.613 26.2344ZM120.328 25.8594L120.207 25.3743L120.199 25.3763L120.191 25.3786L120.328 25.8594ZM120.961 25.4844L121.383 25.7529L121.388 25.7443L120.961 25.4844ZM121.219 24.4531L121.715 24.5142L121.716 24.5062L121.219 24.4531ZM121.383 21.0312L120.883 21.0151L120.883 21.0174L121.383 21.0312ZM120.598 14.1406L120.421 14.6086L120.431 14.6119L120.598 14.1406ZM120.34 12.207L120.589 12.6406L120.592 12.6389L120.34 12.207ZM122.672 11.8906L122.69 11.3909L122.685 11.3908L122.672 11.8906ZM127.887 11.8203L127.912 12.3197L127.913 12.3196L127.887 11.8203ZM133.242 12.4062L133.425 11.941L133.424 11.9406L133.242 12.4062ZM136.734 15.4766L136.295 15.7153L136.296 15.7173L136.734 15.4766ZM137.391 22.6602L137.871 22.8003L137.871 22.7992L137.391 22.6602ZM136.348 24.957L136.759 25.2411L136.762 25.2367L136.348 24.957ZM129.598 28.1914L129.581 28.6911L129.589 28.6914H129.598V28.1914ZM128.18 28.1445L128.196 27.6448L128.194 27.6447L128.18 28.1445ZM126.961 28.1094L126.944 28.6091L126.947 28.6092L126.961 28.1094ZM127.242 25.4844L126.889 25.838L126.895 25.8445L127.242 25.4844ZM130.922 16.1328L130.475 16.3576L130.475 16.3577L130.922 16.1328ZM127.148 14.6094L126.804 14.2468L126.795 14.2558L127.148 14.6094ZM124.465 27.5625H123.621V28.5625H124.465V27.5625ZM123.621 27.5625C123.113 27.5625 122.55 27.5867 121.93 27.6343L122.007 28.6313C122.607 28.5852 123.144 28.5625 123.621 28.5625V27.5625ZM121.928 27.6345C121.544 27.6658 121.297 27.6797 121.172 27.6797V28.6797C121.343 28.6797 121.628 28.6623 122.009 28.6312L121.928 27.6345ZM121.172 27.6797C120.725 27.6797 120.412 27.5769 120.191 27.4141L119.598 28.2187C120.033 28.5403 120.572 28.6797 121.172 28.6797V27.6797ZM120.191 27.4141C119.984 27.2613 119.902 27.0911 119.902 26.8672H118.902C118.902 27.4246 119.148 27.8871 119.598 28.2187L120.191 27.4141ZM119.902 26.8672C119.902 26.6775 119.95 26.6061 119.976 26.5782L119.25 25.8905C118.995 26.1596 118.902 26.51 118.902 26.8672H119.902ZM119.976 26.5787C120.037 26.5146 120.178 26.4223 120.465 26.3401L120.191 25.3786C119.822 25.4839 119.487 25.6417 119.251 25.89L119.976 26.5787ZM120.449 26.3444C120.817 26.2526 121.174 26.0808 121.383 25.7528L120.539 25.2159C120.529 25.2317 120.464 25.3099 120.207 25.3743L120.449 26.3444ZM121.388 25.7443C121.559 25.4627 121.653 25.0193 121.715 24.5142L120.722 24.392C120.66 24.9026 120.581 25.1466 120.534 25.2244L121.388 25.7443ZM121.716 24.5062C121.781 23.8976 121.836 22.7377 121.883 21.0451L120.883 21.0174C120.836 22.7154 120.782 23.8368 120.722 24.4001L121.716 24.5062ZM121.883 21.0474C121.937 19.3468 121.965 17.6578 121.965 15.9805H120.965C120.965 17.6469 120.938 19.3251 120.883 21.0151L121.883 21.0474ZM121.965 15.9805C121.965 15.6414 121.952 15.3472 121.923 15.1025C121.896 14.8669 121.851 14.6397 121.766 14.4574L120.859 14.8785C120.876 14.915 120.907 15.0159 120.93 15.2178C120.952 15.4106 120.965 15.6633 120.965 15.9805H121.965ZM121.766 14.4574C121.58 14.0578 121.188 13.8192 120.765 13.6693L120.431 14.6119C120.757 14.7276 120.841 14.8407 120.859 14.8785L121.766 14.4574ZM120.774 13.6727C120.565 13.5939 120.45 13.5026 120.386 13.4212C120.328 13.3454 120.289 13.2467 120.289 13.0977H119.289C119.289 13.4408 119.385 13.762 119.596 14.0339C119.802 14.3001 120.092 14.4842 120.421 14.6085L120.774 13.6727ZM120.289 13.0977C120.289 12.9158 120.357 12.7738 120.589 12.6406L120.091 11.7735C119.588 12.0621 119.289 12.5139 119.289 13.0977H120.289ZM120.592 12.6389C120.86 12.4824 121.28 12.3789 121.898 12.3789V11.3789C121.189 11.3789 120.57 11.4942 120.088 11.7751L120.592 12.6389ZM121.898 12.3789C122.112 12.3789 122.365 12.3827 122.659 12.3905L122.685 11.3908C122.385 11.3829 122.123 11.3789 121.898 11.3789V12.3789ZM122.654 12.3903C123.311 12.4138 123.795 12.4258 124.102 12.4258V11.4258C123.814 11.4258 123.345 11.4144 122.69 11.3909L122.654 12.3903ZM124.102 12.4258C125.229 12.4258 126.499 12.3903 127.912 12.3197L127.862 11.3209C126.462 11.3909 125.209 11.4258 124.102 11.4258V12.4258ZM127.913 12.3196C128.198 12.3046 128.56 12.2969 129 12.2969V11.2969C128.55 11.2969 128.169 11.3048 127.86 11.321L127.913 12.3196ZM129 12.2969C130.76 12.2969 132.103 12.4979 133.06 12.8719L133.424 11.9406C132.303 11.5021 130.818 11.2969 129 11.2969V12.2969ZM133.059 12.8715C134.498 13.4385 135.571 14.3829 136.295 15.7153L137.174 15.2378C136.335 13.6953 135.08 12.5927 133.425 11.941L133.059 12.8715ZM136.296 15.7173C136.943 16.8951 137.277 18.3164 137.277 20H138.277C138.277 18.1836 137.916 16.5893 137.173 15.2358L136.296 15.7173ZM137.277 20C137.277 20.8335 137.156 21.6734 136.91 22.5211L137.871 22.7992C138.141 21.8657 138.277 20.9322 138.277 20H137.277ZM136.911 22.52C136.665 23.3617 136.337 24.0785 135.933 24.6774L136.762 25.2367C137.233 24.5387 137.601 23.7242 137.871 22.8003L136.911 22.52ZM135.936 24.6729C135.095 25.8913 133.936 26.7494 132.44 27.2483L132.756 28.197C134.447 27.6334 135.788 26.6478 136.759 25.2411L135.936 24.6729ZM132.44 27.2483C131.557 27.5426 130.61 27.6914 129.598 27.6914V28.6914C130.71 28.6914 131.764 28.5277 132.756 28.197L132.44 27.2483ZM129.614 27.6917L128.196 27.6448L128.163 28.6443L129.581 28.6911L129.614 27.6917ZM128.194 27.6447L126.975 27.6096L126.947 28.6092L128.165 28.6443L128.194 27.6447ZM126.977 27.6096C126.028 27.5783 125.191 27.5625 124.465 27.5625V28.5625C125.177 28.5625 126.003 28.578 126.944 28.6091L126.977 27.6096ZM126.426 15.3594V24.4297H127.426V15.3594H126.426ZM126.426 24.4297C126.426 24.9726 126.539 25.488 126.889 25.8379L127.596 25.1308C127.524 25.0589 127.426 24.8711 127.426 24.4297H126.426ZM126.895 25.8445C127.246 26.1817 127.758 26.2891 128.297 26.2891V25.2891C127.852 25.2891 127.661 25.1933 127.589 25.1242L126.895 25.8445ZM128.297 26.2891C129.586 26.2891 130.608 25.7865 131.281 24.763C131.93 23.7761 132.219 22.3592 132.219 20.5859H131.219C131.219 22.2814 130.937 23.4661 130.446 24.2135C129.978 24.9244 129.289 25.2891 128.297 25.2891V26.2891ZM132.219 20.5859C132.219 18.6368 131.95 17.0627 131.368 15.9079L130.475 16.3577C130.956 17.3123 131.219 18.7069 131.219 20.5859H132.219ZM131.368 15.908C131.038 15.2517 130.581 14.738 129.991 14.392C129.403 14.0472 128.714 13.8867 127.945 13.8867V14.8867C128.575 14.8867 129.081 15.0173 129.485 15.2545C129.888 15.4905 130.22 15.8498 130.475 16.3576L131.368 15.908ZM127.945 13.8867C127.529 13.8867 127.102 13.9643 126.804 14.2469L127.493 14.9719C127.508 14.9576 127.611 14.8867 127.945 14.8867V13.8867ZM126.795 14.2558C126.506 14.5444 126.426 14.9596 126.426 15.3594H127.426C127.426 15.056 127.494 14.9712 127.502 14.9629L126.795 14.2558ZM144.574 24.5703L144.255 24.9554L144.261 24.9602L144.574 24.5703ZM147.598 25.0273L147.746 25.5049L147.751 25.5033L147.598 25.0273ZM148.734 24.4883L148.446 24.0798L148.445 24.0807L148.734 24.4883ZM149.203 26.9844L148.905 26.5833L148.904 26.5841L149.203 26.9844ZM140.777 26.9492L140.449 27.3265L140.452 27.3285L140.777 26.9492ZM139.441 25.25L138.998 25.4814L139 25.4839L139.441 25.25ZM139.945 18.9219L140.343 19.2247L140.344 19.2241L139.945 18.9219ZM142.57 16.8945L142.764 17.3557L142.765 17.3553L142.57 16.8945ZM148.945 17.6562L148.63 18.0444L148.632 18.0455L148.945 17.6562ZM150.211 19.1562L149.774 19.3986L149.775 19.4004L150.211 19.1562ZM150.445 22.332L150.863 22.607L150.866 22.6024L150.445 22.332ZM144.012 19.0156L144.415 19.3109L144.416 19.3097L144.012 19.0156ZM143.824 20.4805L143.499 20.8601L143.505 20.8656L143.512 20.8709L143.824 20.4805ZM149.625 22.3125H144.117V23.3125H149.625V22.3125ZM144.117 22.3125C143.935 22.3125 143.704 22.3508 143.516 22.5146C143.315 22.6899 143.254 22.927 143.254 23.1289H144.254C144.254 23.1228 144.255 23.1396 144.244 23.1692C144.231 23.2018 144.208 23.2383 144.173 23.2686C144.106 23.327 144.058 23.3125 144.117 23.3125V22.3125ZM143.254 23.1289C143.254 23.8382 143.642 24.4468 144.255 24.9553L144.893 24.1853C144.413 23.7875 144.254 23.4352 144.254 23.1289H143.254ZM144.261 24.9602C144.893 25.4674 145.595 25.7383 146.355 25.7383V24.7383C145.851 24.7383 145.365 24.5638 144.887 24.1804L144.261 24.9602ZM146.355 25.7383C146.792 25.7383 147.257 25.6566 147.746 25.5049L147.449 24.5498C147.032 24.6793 146.669 24.7383 146.355 24.7383V25.7383ZM147.751 25.5033C148.246 25.344 148.674 25.1444 149.024 24.8959L148.445 24.0807C148.201 24.2541 147.872 24.4138 147.444 24.5514L147.751 25.5033ZM149.023 24.8968C149.139 24.8149 149.229 24.7637 149.295 24.7342C149.364 24.7034 149.384 24.707 149.367 24.707V23.707C149.044 23.707 148.722 23.8852 148.446 24.0798L149.023 24.8968ZM149.367 24.707C149.346 24.707 149.416 24.6922 149.571 24.8899L150.359 24.2742C150.123 23.9719 149.794 23.707 149.367 23.707V24.707ZM149.571 24.8899C149.711 25.0696 149.758 25.2219 149.758 25.3555H150.758C150.758 24.9577 150.609 24.5944 150.359 24.2742L149.571 24.8899ZM149.758 25.3555C149.758 25.6875 149.553 26.1004 148.905 26.5833L149.502 27.3854C150.259 26.8215 150.758 26.1484 150.758 25.3555H149.758ZM148.904 26.5841C147.752 27.4458 146.425 27.8789 144.902 27.8789V28.8789C146.63 28.8789 148.17 28.3823 149.503 27.3847L148.904 26.5841ZM144.902 27.8789C143.366 27.8789 142.111 27.4356 141.103 26.57L140.452 27.3285C141.663 28.3691 143.158 28.8789 144.902 28.8789V27.8789ZM141.105 26.5719C140.615 26.1456 140.208 25.6286 139.883 25.0161L139 25.4839C139.378 26.1995 139.861 26.8153 140.449 27.3265L141.105 26.5719ZM139.885 25.0186C139.46 24.2057 139.25 23.3553 139.25 22.4609H138.25C138.25 23.5197 138.501 24.5286 138.998 25.4814L139.885 25.0186ZM139.25 22.4609C139.25 21.2581 139.612 20.1848 140.343 19.2247L139.547 18.619C138.684 19.7527 138.25 21.0387 138.25 22.4609H139.25ZM140.344 19.2241C140.977 18.3889 141.781 17.7674 142.764 17.3557L142.377 16.4334C141.234 16.9123 140.288 17.6424 139.547 18.6197L140.344 19.2241ZM142.765 17.3553C143.495 17.0471 144.292 16.8906 145.16 16.8906V15.8906C144.169 15.8906 143.239 16.07 142.376 16.4338L142.765 17.3553ZM145.16 16.8906C146.543 16.8906 147.69 17.281 148.63 18.0444L149.26 17.2681C148.123 16.344 146.746 15.8906 145.16 15.8906V16.8906ZM148.632 18.0455C149.106 18.4276 149.485 18.8779 149.774 19.3986L150.648 18.9139C150.296 18.2783 149.832 17.7287 149.259 17.267L148.632 18.0455ZM149.775 19.4004C150.109 19.9972 150.262 20.5544 150.262 21.0781H151.262C151.262 20.3518 151.048 19.6278 150.647 18.9121L149.775 19.4004ZM150.262 21.0781C150.262 21.5186 150.17 21.8352 150.025 22.0617L150.866 22.6024C151.142 22.1726 151.262 21.6533 151.262 21.0781H150.262ZM150.028 22.057C149.894 22.2602 149.767 22.3125 149.625 22.3125V23.3125C150.155 23.3125 150.575 23.0445 150.863 22.607L150.028 22.057ZM144.422 21.1211H145.605V20.1211H144.422V21.1211ZM145.605 21.1211C145.923 21.1211 146.254 21.0488 146.507 20.8159C146.767 20.5759 146.855 20.2481 146.855 19.9297H145.855C145.855 20.0011 145.846 20.0421 145.838 20.0622C145.835 20.0718 145.832 20.0766 145.831 20.0783C145.83 20.0798 145.829 20.0803 145.829 20.0806C145.829 20.081 145.826 20.0831 145.82 20.0863C145.814 20.0897 145.804 20.0947 145.787 20.0999C145.752 20.1108 145.694 20.1211 145.605 20.1211V21.1211ZM146.855 19.9297C146.855 19.4062 146.702 18.935 146.362 18.5616L145.623 19.2353C145.767 19.3931 145.855 19.6094 145.855 19.9297H146.855ZM146.362 18.5616C146.016 18.1824 145.561 18 145.043 18V19C145.307 19 145.484 19.0833 145.623 19.2353L146.362 18.5616ZM145.043 18C144.451 18 143.955 18.244 143.607 18.7215L144.416 19.3097C144.569 19.0997 144.76 19 145.043 19V18ZM143.608 18.7204C143.325 19.108 143.16 19.5333 143.16 19.9883H144.16C144.16 19.787 144.23 19.5639 144.415 19.3109L143.608 18.7204ZM143.16 19.9883C143.16 20.279 143.225 20.6254 143.499 20.8601L144.15 20.1008C144.176 20.1238 144.18 20.1424 144.176 20.129C144.17 20.1124 144.16 20.0695 144.16 19.9883H143.16ZM143.512 20.8709C143.767 21.0753 144.113 21.1211 144.422 21.1211V20.1211C144.307 20.1211 144.227 20.1112 144.176 20.0992C144.124 20.087 144.12 20.0769 144.137 20.09L143.512 20.8709ZM159.34 14.5625L159.083 14.1337L159.078 14.1367L159.34 14.5625ZM158.754 15.3008L158.273 15.165L158.27 15.1766L158.754 15.3008ZM158.941 18.1602L159.219 17.7441L159.211 17.7391L159.203 17.7343L158.941 18.1602ZM159.469 18.3008L159.435 18.7997L159.437 18.7997L159.469 18.3008ZM162.258 14.5625L162.011 14.9973L162.019 15.0019L162.258 14.5625ZM161.578 14.0703L161.183 14.3774L161.192 14.3882L161.578 14.0703ZM161.777 12.6523L162.142 12.9947L162.147 12.9892L161.777 12.6523ZM162.727 12.1133L162.843 12.5995L162.843 12.5994L162.727 12.1133ZM168.961 12.2188L168.779 12.6845L168.785 12.6869L168.961 12.2188ZM169.266 14.4922L169.475 14.9462L169.483 14.9423L169.266 14.4922ZM168.668 14.9023L169.068 15.2023L169.072 15.1966L169.076 15.1907L168.668 14.9023ZM168.445 15.6172L168.939 15.6962L168.939 15.694L168.445 15.6172ZM168.434 24.9102L168.917 24.7813L168.916 24.7786L168.434 24.9102ZM169.383 25.8477L169.137 26.2828L169.141 26.2853L169.383 25.8477ZM168.762 27.8984L168.938 28.3662L168.941 28.3651L168.762 27.8984ZM162.246 27.8867L162.054 28.3484L162.056 28.3491L162.246 27.8867ZM162.035 25.6836L162.274 26.1231L162.277 26.1214L162.035 25.6836ZM162.492 25.3086L162.08 25.0253L162.074 25.0343L162.068 25.0436L162.492 25.3086ZM162.738 24.6172L163.225 24.7305L163.227 24.722L162.738 24.6172ZM162.727 21.2891L162.406 21.6733L162.417 21.6815L162.727 21.2891ZM158.93 21.3477L159.115 21.8119L159.119 21.8106L158.93 21.3477ZM158.637 21.8984L158.141 21.8349L158.141 21.8364L158.637 21.8984ZM158.941 25.2031L158.52 25.4727L158.525 25.4796L158.529 25.4864L158.941 25.2031ZM159.551 25.6836L159.29 26.1105L159.297 26.1142L159.303 26.1177L159.551 25.6836ZM152.52 27.8984L152.361 28.3728L152.364 28.3737L152.52 27.8984ZM151.688 27.4062L151.315 27.7393L151.321 27.7463L151.327 27.7531L151.688 27.4062ZM152.402 25.5547L152.179 25.1074L152.172 25.1108L152.402 25.5547ZM152.859 25.1328L152.42 24.8934L152.416 24.9012L152.412 24.9092L152.859 25.1328ZM153.07 24.2656L152.574 24.202L152.574 24.2083L153.07 24.2656ZM153.234 19.707L152.734 19.7154L152.734 19.7174L153.234 19.707ZM153.188 16.4961L152.688 16.4903V16.4961H153.188ZM153.012 15.1719L152.571 15.408L152.576 15.4175L152.582 15.4268L153.012 15.1719ZM152.062 14.457L152.286 14.0097L152.278 14.0058L152.062 14.457ZM153.844 12.0781L153.941 12.5685L153.943 12.5682L153.844 12.0781ZM156.586 12.3086C157.785 12.3086 158.62 12.4347 159.137 12.6486C159.391 12.7535 159.54 12.8682 159.624 12.9728C159.702 13.0692 159.742 13.1778 159.742 13.3203H160.742C160.742 12.9589 160.63 12.6266 160.403 12.3451C160.183 12.0717 159.875 11.8715 159.519 11.7245C158.818 11.4344 157.824 11.3086 156.586 11.3086V12.3086ZM159.742 13.3203C159.742 13.5184 159.697 13.6294 159.65 13.6942L160.459 14.2824C160.662 14.0034 160.742 13.6691 160.742 13.3203H159.742ZM159.65 13.6942C159.587 13.7819 159.42 13.9312 159.083 14.1338L159.597 14.9912C159.963 14.7719 160.273 14.5384 160.459 14.2824L159.65 13.6942ZM159.078 14.1367C158.681 14.3807 158.397 14.7237 158.273 15.1651L159.235 15.4365C159.283 15.2685 159.389 15.1193 159.602 14.9883L159.078 14.1367ZM158.27 15.1766C158.173 15.5524 158.137 16.2329 158.137 17.1523H159.137C159.137 16.2124 159.178 15.6586 159.238 15.425L158.27 15.1766ZM158.137 17.1523C158.137 17.4507 158.164 17.7257 158.234 17.9591C158.304 18.1902 158.434 18.435 158.679 18.586L159.203 17.7343C159.246 17.7603 159.223 17.7747 159.191 17.6698C159.161 17.5672 159.137 17.4009 159.137 17.1523H158.137ZM158.664 18.5762C158.887 18.7251 159.166 18.7817 159.435 18.7997L159.502 17.8019C159.303 17.7886 159.23 17.7515 159.219 17.7441L158.664 18.5762ZM159.437 18.7997C159.698 18.8166 160.278 18.8242 161.156 18.8242V17.8242C160.268 17.8242 159.724 17.8162 159.501 17.8018L159.437 18.7997ZM161.156 18.8242C161.565 18.8242 161.907 18.8134 162.178 18.7902C162.428 18.7686 162.677 18.7326 162.858 18.653L162.455 17.7377C162.457 17.7368 162.432 17.7471 162.361 17.7601C162.296 17.7723 162.207 17.784 162.092 17.7938C161.862 17.8136 161.552 17.8242 161.156 17.8242V18.8242ZM162.858 18.653C163.332 18.4444 163.449 17.9587 163.449 17.5508H162.449C162.449 17.6813 162.43 17.743 162.421 17.7628C162.417 17.7704 162.418 17.7664 162.426 17.7578C162.435 17.7487 162.446 17.7416 162.455 17.7377L162.858 18.653ZM163.449 17.5508C163.449 16.5209 163.404 15.7501 163.296 15.2821L162.321 15.507C162.401 15.8515 162.449 16.5181 162.449 17.5508H163.449ZM163.296 15.2821C163.181 14.7862 162.935 14.361 162.496 14.1231L162.019 15.0019C162.128 15.0609 162.248 15.1904 162.321 15.507L163.296 15.2821ZM162.505 14.1278C162.163 13.9336 162.01 13.8077 161.964 13.7525L161.192 14.3882C161.365 14.5986 161.665 14.8008 162.011 14.9972L162.505 14.1278ZM161.973 13.7633C161.948 13.7319 161.914 13.6655 161.914 13.5195H160.914C160.914 13.8267 160.989 14.1274 161.183 14.3773L161.973 13.7633ZM161.914 13.5195C161.914 13.3401 161.977 13.1703 162.142 12.9947L161.413 12.31C161.094 12.65 160.914 13.0583 160.914 13.5195H161.914ZM162.147 12.9892C162.314 12.8061 162.538 12.6727 162.843 12.5995L162.61 11.6271C162.134 11.7413 161.725 11.9674 161.408 12.3155L162.147 12.9892ZM162.843 12.5994C163.604 12.4165 164.581 12.3203 165.785 12.3203V11.3203C164.536 11.3203 163.474 11.4194 162.61 11.6271L162.843 12.5994ZM165.785 12.3203C167.209 12.3203 168.19 12.4542 168.779 12.6845L169.143 11.753C168.373 11.4521 167.236 11.3203 165.785 11.3203V12.3203ZM168.785 12.6869C169.078 12.7967 169.253 12.922 169.353 13.0398C169.445 13.1485 169.492 13.273 169.492 13.4375H170.492C170.492 13.0473 170.368 12.6913 170.116 12.3938C169.872 12.1054 169.531 11.8986 169.136 11.7506L168.785 12.6869ZM169.492 13.4375C169.492 13.581 169.457 13.6849 169.399 13.7691C169.338 13.8572 169.232 13.953 169.048 14.0421L169.483 14.9423C169.784 14.797 170.041 14.5998 170.222 14.3364C170.406 14.069 170.492 13.7628 170.492 13.4375H169.492ZM169.056 14.0382C168.74 14.1842 168.434 14.3663 168.259 14.614L169.076 15.1907C169.076 15.192 169.08 15.1848 169.097 15.17C169.113 15.1553 169.136 15.1359 169.171 15.1125C169.24 15.0648 169.339 15.0088 169.475 14.9462L169.056 14.0382ZM168.268 14.6023C168.093 14.8358 168.006 15.1863 167.951 15.5403L168.939 15.694C168.964 15.5333 168.992 15.4116 169.019 15.3235C169.048 15.2303 169.07 15.2002 169.068 15.2023L168.268 14.6023ZM167.952 15.5382C167.93 15.6707 167.912 15.9704 167.893 16.3916C167.873 16.8287 167.852 17.4331 167.828 18.2035L168.828 18.234C168.851 17.4653 168.873 16.8666 168.892 16.4366C168.912 15.9906 168.929 15.759 168.939 15.6962L167.952 15.5382ZM167.828 18.2035C167.781 19.7447 167.758 20.9731 167.758 21.8867H168.758C168.758 20.9878 168.781 19.7709 168.828 18.234L167.828 18.2035ZM167.758 21.8867C167.758 22.6846 167.773 23.3437 167.803 23.8611C167.832 24.3673 167.878 24.7723 167.951 25.0417L168.916 24.7786C168.872 24.6184 168.83 24.3046 168.801 23.803C168.772 23.3126 168.758 22.6748 168.758 21.8867H167.758ZM167.95 25.039C168.015 25.2792 168.111 25.5524 168.291 25.7325L168.998 25.0254C169.019 25.046 169.012 25.0479 168.989 24.9979C168.969 24.9523 168.944 24.8822 168.917 24.7813L167.95 25.039ZM168.291 25.7325C168.374 25.8157 168.5 25.9009 168.62 25.9768C168.753 26.0614 168.926 26.1637 169.137 26.2828L169.629 25.4125C169.425 25.2973 169.269 25.2043 169.156 25.1326C169.029 25.0523 168.993 25.0203 168.998 25.0254L168.291 25.7325ZM169.141 26.2853C169.225 26.3316 169.265 26.3768 169.287 26.4135C169.308 26.4499 169.328 26.5054 169.328 26.5977H170.328C170.328 26.354 170.274 26.1165 170.147 25.9029C170.02 25.6896 169.838 25.5278 169.625 25.41L169.141 26.2853ZM169.328 26.5977C169.328 26.7863 169.275 26.9293 169.175 27.0512C169.068 27.1812 168.885 27.3155 168.582 27.4318L168.941 28.3651C169.35 28.208 169.699 27.9887 169.948 27.6852C170.204 27.3734 170.328 27.0028 170.328 26.5977H169.328ZM168.585 27.4307C167.972 27.6622 166.906 27.7969 165.328 27.7969V28.7969C166.922 28.7969 168.145 28.6659 168.938 28.3662L168.585 27.4307ZM165.328 27.7969C163.953 27.7969 163.007 27.6593 162.436 27.4244L162.056 28.3491C162.813 28.6611 163.922 28.7969 165.328 28.7969V27.7969ZM162.438 27.425C162.192 27.3226 162.047 27.2085 161.964 27.1022C161.887 27.0028 161.844 26.8852 161.844 26.7266H160.844C160.844 27.0913 160.951 27.4288 161.175 27.7161C161.393 27.9966 161.699 28.2008 162.054 28.3484L162.438 27.425ZM161.844 26.7266C161.844 26.5007 161.939 26.3043 162.274 26.1231L161.797 25.2441C161.209 25.5629 160.844 26.0618 160.844 26.7266H161.844ZM162.277 26.1214C162.529 25.9821 162.771 25.8066 162.916 25.5736L162.068 25.0436C162.058 25.0606 161.994 25.1351 161.794 25.2458L162.277 26.1214ZM162.904 25.5919C163.048 25.3823 163.146 25.0693 163.225 24.7304L162.251 24.5039C162.174 24.8369 162.108 24.9849 162.08 25.0253L162.904 25.5919ZM163.227 24.722C163.378 24.0203 163.449 23.1781 163.449 22.2031H162.449C162.449 23.1344 162.38 23.9016 162.249 24.5124L163.227 24.722ZM163.449 22.2031C163.449 21.937 163.43 21.6936 163.379 21.4871C163.332 21.2918 163.239 21.0569 163.036 20.8966L162.417 21.6815C162.362 21.6384 162.381 21.6145 162.408 21.7238C162.432 21.822 162.449 21.9771 162.449 22.2031H163.449ZM163.047 20.905C162.865 20.7533 162.617 20.6944 162.417 20.6632C162.193 20.6283 161.919 20.6133 161.602 20.6133V21.6133C161.894 21.6133 162.111 21.6276 162.263 21.6512C162.438 21.6786 162.448 21.7077 162.406 21.6732L163.047 20.905ZM161.602 20.6133C160.895 20.6133 160.307 20.633 159.841 20.6738C159.39 20.7134 159.007 20.7761 158.741 20.8847L159.119 21.8106C159.235 21.7629 159.489 21.7085 159.928 21.67C160.354 21.6327 160.91 21.6133 161.602 21.6133V20.6133ZM158.744 20.8834C158.315 21.0549 158.184 21.4988 158.141 21.8349L159.133 21.962C159.148 21.8437 159.17 21.7865 159.181 21.767C159.185 21.7593 159.183 21.765 159.171 21.7763C159.159 21.7885 159.14 21.8021 159.115 21.8119L158.744 20.8834ZM158.141 21.8364C158.09 22.2388 158.066 22.7219 158.066 23.2812H159.066C159.066 22.7468 159.089 22.308 159.133 21.9605L158.141 21.8364ZM158.066 23.2812C158.066 24.1936 158.19 24.9563 158.52 25.4727L159.363 24.9336C159.193 24.6687 159.066 24.1502 159.066 23.2812H158.066ZM158.529 25.4864C158.683 25.7094 158.974 25.9173 159.29 26.1105L159.811 25.2567C159.661 25.1653 159.548 25.0879 159.468 25.0244C159.428 24.9928 159.399 24.9672 159.379 24.9475C159.358 24.9272 159.352 24.918 159.353 24.9199L158.529 25.4864ZM159.303 26.1177C159.451 26.2024 159.543 26.3295 159.543 26.6094H160.543C160.543 26.0298 160.307 25.5398 159.799 25.2495L159.303 26.1177ZM159.543 26.6094C159.543 26.8517 159.402 27.1389 158.728 27.3961L159.084 28.3304C159.926 28.0095 160.543 27.4608 160.543 26.6094H159.543ZM158.728 27.3961C158.054 27.6531 157.043 27.7969 155.66 27.7969V28.7969C157.089 28.7969 158.243 28.6516 159.084 28.3304L158.728 27.3961ZM155.66 27.7969C154.408 27.7969 153.419 27.6664 152.675 27.4232L152.364 28.3737C153.245 28.6617 154.35 28.7969 155.66 28.7969V27.7969ZM152.678 27.4241C152.383 27.3258 152.182 27.1987 152.048 27.0594L151.327 27.7531C151.599 28.0356 151.953 28.2367 152.361 28.3728L152.678 27.4241ZM152.06 27.0732C151.935 26.9326 151.895 26.8094 151.895 26.6914H150.895C150.895 27.089 151.049 27.4424 151.315 27.7393L152.06 27.0732ZM151.895 26.6914C151.895 26.5105 151.938 26.4459 151.956 26.4259L151.208 25.7616C150.976 26.0229 150.895 26.3567 150.895 26.6914H151.895ZM151.956 26.4259C152.012 26.3627 152.207 26.2195 152.633 25.9986L152.172 25.1108C151.754 25.3274 151.402 25.5436 151.208 25.7616L151.956 26.4259ZM152.626 26.0019C152.915 25.8575 153.16 25.6487 153.307 25.3564L152.412 24.9092C152.386 24.9607 152.327 25.0332 152.179 25.1075L152.626 26.0019ZM153.298 25.3722C153.441 25.1103 153.519 24.7387 153.567 24.3229L152.574 24.2083C152.528 24.605 152.465 24.8116 152.42 24.8934L153.298 25.3722ZM153.566 24.3292C153.687 23.3854 153.746 22.1665 153.746 20.6797H152.746C152.746 22.146 152.688 23.3177 152.574 24.202L153.566 24.3292ZM153.746 20.6797C153.746 20.4018 153.742 20.0739 153.734 19.6966L152.734 19.7174C152.742 20.0901 152.746 20.4107 152.746 20.6797H153.746ZM153.734 19.6987C153.703 17.8207 153.688 16.7563 153.688 16.4961H152.688C152.688 16.7671 152.703 17.8433 152.734 19.7154L153.734 19.6987ZM153.687 16.5019C153.692 16.1528 153.679 15.8485 153.645 15.5953C153.613 15.3535 153.556 15.11 153.442 14.917L152.582 15.4268C152.592 15.4447 152.627 15.5274 152.654 15.7269C152.679 15.9152 152.691 16.1675 152.688 16.4903L153.687 16.5019ZM153.452 14.9358C153.345 14.7355 153.173 14.5694 152.987 14.4297C152.797 14.2861 152.56 14.1468 152.286 14.0098L151.839 14.9042C152.081 15.0251 152.26 15.1338 152.386 15.2285C152.517 15.3271 152.561 15.3895 152.571 15.408L153.452 14.9358ZM152.278 14.0058C152.163 13.9512 152.111 13.8987 152.086 13.8631C152.064 13.8319 152.047 13.7904 152.047 13.7188H151.047C151.047 13.9752 151.116 14.2209 151.266 14.4357C151.413 14.6463 151.618 14.7988 151.847 14.9083L152.278 14.0058ZM152.047 13.7188C152.047 13.518 152.132 13.3238 152.412 13.1237C152.711 12.9099 153.205 12.715 153.941 12.5685L153.746 11.5877C152.951 11.746 152.297 11.9768 151.83 12.3099C151.345 12.6567 151.047 13.1304 151.047 13.7188H152.047ZM153.943 12.5682C154.8 12.3953 155.681 12.3086 156.586 12.3086V11.3086C155.616 11.3086 154.669 11.4015 153.745 11.588L153.943 12.5682ZM181.781 17.4922L181.498 17.904L181.498 17.9043L181.781 17.4922ZM183.645 19.5664L184.084 19.3275L184.083 19.3253L183.645 19.5664ZM182.039 26.6797L182.342 27.0772L182.343 27.077L182.039 26.6797ZM172.406 26.7852L172.745 26.417L172.744 26.4166L172.406 26.7852ZM172.781 18.2305L173.106 18.611L173.107 18.6098L172.781 18.2305ZM177.082 19.0859L177.099 18.5862L177.091 18.5859H177.082V19.0859ZM176.25 19.4727L175.863 19.156L175.862 19.1574L176.25 19.4727ZM176.203 22.4023L175.714 22.5058L175.715 22.5113L176.203 22.4023ZM176.836 24.5469L177.304 24.3701L177.302 24.3662L176.836 24.5469ZM178.793 21.9453L178.303 22.046L178.304 22.0504L178.793 21.9453ZM178.16 19.9062L178.611 19.6908L178.61 19.688L178.16 19.9062ZM178.02 16.8789C179.358 16.8789 180.511 17.2246 181.498 17.904L182.065 17.0803C180.896 16.2754 179.541 15.8789 178.02 15.8789V16.8789ZM181.498 17.9043C182.205 18.3898 182.774 19.0217 183.207 19.8075L184.083 19.3253C183.578 18.408 182.904 17.6571 182.064 17.08L181.498 17.9043ZM183.205 19.8053C183.652 20.6261 183.871 21.4741 183.871 22.3555H184.871C184.871 21.2993 184.606 20.2879 184.084 19.3275L183.205 19.8053ZM183.871 22.3555C183.871 23.8696 183.188 25.1729 181.736 26.2823L182.343 27.077C183.999 25.8115 184.871 24.2319 184.871 22.3555H183.871ZM181.736 26.2822C180.341 27.3467 178.749 27.8789 176.941 27.8789V28.8789C178.962 28.8789 180.769 28.2783 182.342 27.0772L181.736 26.2822ZM176.941 27.8789C175.174 27.8789 173.792 27.3791 172.745 26.417L172.068 27.1533C173.333 28.3162 174.974 28.8789 176.941 28.8789V27.8789ZM172.744 26.4166C171.732 25.4887 171.219 24.2834 171.219 22.7539H170.219C170.219 24.5369 170.831 26.0191 172.068 27.1537L172.744 26.4166ZM171.219 22.7539C171.219 21.0531 171.845 19.6857 173.106 18.611L172.457 17.8499C170.968 19.119 170.219 20.7672 170.219 22.7539H171.219ZM173.107 18.6098C174.446 17.4601 176.073 16.8789 178.02 16.8789V15.8789C175.856 15.8789 173.992 16.5321 172.456 17.8511L173.107 18.6098ZM177.082 18.5859C176.594 18.5859 176.172 18.7779 175.863 19.156L176.637 19.7893C176.749 19.6518 176.883 19.5859 177.082 19.5859V18.5859ZM175.862 19.1574C175.567 19.5208 175.445 19.9797 175.445 20.4805H176.445C176.445 20.1375 176.527 19.9245 176.638 19.788L175.862 19.1574ZM175.445 20.4805C175.445 21.0008 175.539 21.681 175.714 22.5058L176.692 22.2989C176.523 21.4986 176.445 20.8976 176.445 20.4805H175.445ZM175.715 22.5113C175.899 23.3351 176.117 24.0746 176.37 24.7275L177.302 24.3662C177.071 23.7691 176.867 23.079 176.691 22.2934L175.715 22.5113ZM176.368 24.7237C176.51 25.099 176.713 25.4238 176.998 25.6558C177.292 25.8939 177.641 26.0078 178.02 26.0078V25.0078C177.851 25.0078 177.73 24.9615 177.629 24.8794C177.52 24.7911 177.404 24.6354 177.304 24.3701L176.368 24.7237ZM178.02 26.0078C178.48 26.0078 178.904 25.8556 179.195 25.4861C179.468 25.1394 179.562 24.6771 179.562 24.1836H178.562C178.562 24.5729 178.484 24.7727 178.409 24.8674C178.352 24.9394 178.254 25.0078 178.02 25.0078V26.0078ZM179.562 24.1836C179.562 23.4833 179.467 22.7009 179.282 21.8402L178.304 22.0504C178.478 22.8616 178.562 23.5714 178.562 24.1836H179.562ZM179.283 21.8446C179.106 20.9858 178.885 20.2635 178.611 19.6908L177.709 20.1217C177.935 20.5959 178.136 21.233 178.303 22.046L179.283 21.8446ZM178.61 19.688C178.298 19.0448 177.799 18.61 177.099 18.5862L177.065 19.5857C177.287 19.5932 177.507 19.7052 177.71 20.1245L178.61 19.688ZM190.957 31.5781L191.276 31.9635L191.279 31.9604L190.957 31.5781ZM189.363 32.3867L189.215 31.909L189.209 31.9112L189.363 32.3867ZM185.461 32.2461L185.204 32.6748L185.207 32.6766L185.461 32.2461ZM184.91 30.582L184.556 30.2283L184.547 30.2382L184.91 30.582ZM186.48 30.2305L186.106 29.8997L186.1 29.906L186.095 29.9126L186.48 30.2305ZM186.621 29.457L187.114 29.3748L187.112 29.3641L186.621 29.457ZM186.352 20.3867L185.923 20.644L185.927 20.6502L185.93 20.6562L186.352 20.3867ZM185.73 19.918L185.543 20.3817L185.547 20.383L185.73 19.918ZM185.602 18.043L185.92 18.4285L185.925 18.4243L185.602 18.043ZM187.359 17.1992L187.211 16.7217L187.208 16.7226L187.359 17.1992ZM191.18 12.4531L190.908 12.873L190.914 12.8767L191.18 12.4531ZM190.875 14.9023L191.126 15.3345L191.127 15.334L190.875 14.9023ZM186.059 15.4062L185.79 15.8278L185.79 15.8281L186.059 15.4062ZM186.82 12.6523L187.005 13.1168L187.006 13.1166L186.82 12.6523ZM191.547 17.3984V27.7812H192.547V17.3984H191.547ZM191.547 27.7812C191.547 28.8194 191.465 29.5771 191.32 30.0805L192.281 30.357C192.465 29.7198 192.547 28.8524 192.547 27.7812H191.547ZM191.32 30.0805C191.18 30.5692 190.947 30.9324 190.635 31.1959L191.279 31.9604C191.764 31.552 192.094 31.0089 192.281 30.357L191.32 30.0805ZM190.638 31.1928C190.295 31.4766 189.827 31.7197 189.215 31.9091L189.511 32.8644C190.212 32.6475 190.806 32.3516 191.276 31.9634L190.638 31.1928ZM189.209 31.9112C188.609 32.1062 188.001 32.2031 187.383 32.2031V33.2031C188.108 33.2031 188.82 33.0891 189.518 32.8622L189.209 31.9112ZM187.383 32.2031C186.682 32.2031 186.135 32.0638 185.715 31.8156L185.207 32.6766C185.818 33.0378 186.552 33.2031 187.383 33.2031V32.2031ZM185.718 31.8173C185.308 31.5714 185.199 31.3331 185.199 31.1094H184.199C184.199 31.7919 184.598 32.3114 185.204 32.6748L185.718 31.8173ZM185.199 31.1094C185.199 31.0351 185.22 30.9822 185.273 30.9259L184.547 30.2382C184.319 30.4788 184.199 30.7774 184.199 31.1094H185.199ZM185.264 30.9356C185.322 30.8774 185.372 30.8594 185.438 30.8594V29.8594C185.097 29.8594 184.795 29.9898 184.557 30.2285L185.264 30.9356ZM185.438 30.8594C185.495 30.8594 185.592 30.8671 185.738 30.889L185.887 29.9001C185.72 29.8751 185.567 29.8594 185.438 29.8594V30.8594ZM185.738 30.889C185.88 30.9103 186.021 30.9297 186.105 30.9297V29.9297C186.117 29.9297 186.12 29.9303 186.108 29.9293C186.098 29.9285 186.083 29.927 186.063 29.9245C186.021 29.9194 185.962 29.9114 185.887 29.9001L185.738 30.889ZM186.105 30.9297C186.429 30.9297 186.685 30.7682 186.866 30.5483L186.095 29.9126C186.073 29.9389 186.063 29.9419 186.07 29.9383C186.074 29.9365 186.079 29.934 186.087 29.9322C186.094 29.9303 186.101 29.9297 186.105 29.9297V30.9297ZM186.855 30.5613C187.046 30.345 187.156 30.0812 187.156 29.7852H186.156C186.156 29.8173 186.149 29.8503 186.106 29.8997L186.855 30.5613ZM187.156 29.7852C187.156 29.6657 187.139 29.5244 187.114 29.3748L186.128 29.5392C186.15 29.671 186.156 29.7484 186.156 29.7852H187.156ZM187.112 29.3641C187.063 29.1005 187.039 28.8624 187.039 28.6484H186.039C186.039 28.9345 186.07 29.2355 186.13 29.55L187.112 29.3641ZM187.039 28.6484V21.207H186.039V28.6484H187.039ZM187.039 21.207C187.039 20.8058 186.969 20.4244 186.773 20.1172L185.93 20.6562C185.984 20.7396 186.039 20.9051 186.039 21.207H187.039ZM186.78 20.1295C186.588 19.8085 186.273 19.5946 185.914 19.4529L185.547 20.383C185.782 20.4757 185.881 20.5744 185.923 20.644L186.78 20.1295ZM185.918 19.4543C185.745 19.3845 185.657 19.3137 185.615 19.2626C185.58 19.2201 185.562 19.1764 185.562 19.1094H184.562C184.562 19.4018 184.656 19.6724 184.844 19.8995C185.024 20.1179 185.271 20.2717 185.543 20.3816L185.918 19.4543ZM185.562 19.1094C185.562 18.8644 185.659 18.6438 185.92 18.4284L185.283 17.6575C184.825 18.0359 184.562 18.5263 184.562 19.1094H185.562ZM185.925 18.4243C186.208 18.1842 186.718 17.9272 187.511 17.6758L187.208 16.7226C186.375 16.9869 185.714 17.2924 185.278 17.6616L185.925 18.4243ZM187.508 17.6767C188.062 17.5044 188.745 17.3406 189.561 17.1866L189.376 16.204C188.536 16.3625 187.813 16.5347 187.211 16.7217L187.508 17.6767ZM189.561 17.1866C190.385 17.0313 190.96 16.9609 191.309 16.9609V15.9609C190.861 15.9609 190.209 16.0469 189.376 16.204L189.561 17.1866ZM191.309 16.9609C191.405 16.9609 191.46 16.9737 191.485 16.983C191.506 16.9907 191.499 16.9926 191.488 16.9788L192.277 16.3649C192.032 16.0487 191.652 15.9609 191.309 15.9609V16.9609ZM191.488 16.9788C191.484 16.973 191.501 16.9932 191.518 17.0691C191.535 17.1433 191.547 17.2506 191.547 17.3984H192.547C192.547 17.0318 192.495 16.644 192.277 16.3649L191.488 16.9788ZM189.562 12.5664C190.185 12.5664 190.618 12.6855 190.908 12.8729L191.451 12.0333C190.944 11.7051 190.299 11.5664 189.562 11.5664V12.5664ZM190.914 12.8767C191.183 13.0455 191.277 13.2337 191.277 13.4727H192.277C192.277 12.8523 191.973 12.3607 191.445 12.0296L190.914 12.8767ZM191.277 13.4727C191.277 13.8654 191.1 14.1919 190.623 14.4707L191.127 15.334C191.853 14.9097 192.277 14.283 192.277 13.4727H191.277ZM190.624 14.4702C189.762 14.9714 188.701 15.2344 187.418 15.2344V16.2344C188.838 16.2344 190.082 15.9426 191.126 15.3345L190.624 14.4702ZM187.418 15.2344C186.916 15.2344 186.565 15.1362 186.327 14.9844L185.79 15.8281C186.239 16.1138 186.795 16.2344 187.418 16.2344V15.2344ZM186.328 14.9847C186.003 14.7774 185.879 14.5379 185.879 14.2344H184.879C184.879 14.9152 185.208 15.457 185.79 15.8278L186.328 14.9847ZM185.879 14.2344C185.879 13.8699 186.117 13.4709 187.005 13.1168L186.635 12.1878C185.602 12.5994 184.879 13.2551 184.879 14.2344H185.879ZM187.006 13.1166C187.937 12.7442 188.788 12.5664 189.562 12.5664V11.5664C188.634 11.5664 187.657 11.7792 186.635 12.1881L187.006 13.1166ZM199.863 24.5703L199.544 24.9554L199.55 24.9602L199.863 24.5703ZM202.887 25.0273L203.035 25.5049L203.04 25.5033L202.887 25.0273ZM204.023 24.4883L203.735 24.0798L203.734 24.0807L204.023 24.4883ZM204.492 26.9844L204.194 26.5833L204.193 26.5841L204.492 26.9844ZM196.066 26.9492L195.738 27.3265L195.741 27.3285L196.066 26.9492ZM194.73 25.25L194.287 25.4814L194.289 25.4839L194.73 25.25ZM195.234 18.9219L195.632 19.2247L195.633 19.2241L195.234 18.9219ZM197.859 16.8945L198.053 17.3557L198.054 17.3553L197.859 16.8945ZM204.234 17.6562L203.919 18.0444L203.921 18.0455L204.234 17.6562ZM205.5 19.1562L205.063 19.3986L205.064 19.4004L205.5 19.1562ZM205.734 22.332L206.152 22.607L206.155 22.6024L205.734 22.332ZM199.301 19.0156L199.704 19.3109L199.705 19.3097L199.301 19.0156ZM199.113 20.4805L198.788 20.8601L198.794 20.8656L198.801 20.8709L199.113 20.4805ZM204.914 22.3125H199.406V23.3125H204.914V22.3125ZM199.406 22.3125C199.224 22.3125 198.993 22.3508 198.805 22.5146C198.604 22.6899 198.543 22.927 198.543 23.1289H199.543C199.543 23.1228 199.544 23.1396 199.533 23.1692C199.52 23.2018 199.497 23.2383 199.462 23.2686C199.395 23.327 199.347 23.3125 199.406 23.3125V22.3125ZM198.543 23.1289C198.543 23.8382 198.931 24.4468 199.544 24.9553L200.182 24.1853C199.702 23.7875 199.543 23.4352 199.543 23.1289H198.543ZM199.55 24.9602C200.182 25.4674 200.884 25.7383 201.645 25.7383V24.7383C201.14 24.7383 200.654 24.5638 200.176 24.1804L199.55 24.9602ZM201.645 25.7383C202.081 25.7383 202.546 25.6566 203.035 25.5049L202.739 24.5498C202.321 24.6793 201.958 24.7383 201.645 24.7383V25.7383ZM203.04 25.5033C203.535 25.344 203.963 25.1444 204.313 24.8959L203.734 24.0807C203.49 24.2541 203.161 24.4138 202.733 24.5514L203.04 25.5033ZM204.312 24.8968C204.428 24.8149 204.518 24.7637 204.584 24.7342C204.653 24.7034 204.673 24.707 204.656 24.707V23.707C204.333 23.707 204.011 23.8852 203.735 24.0798L204.312 24.8968ZM204.656 24.707C204.635 24.707 204.705 24.6922 204.86 24.8899L205.648 24.2742C205.412 23.9719 205.084 23.707 204.656 23.707V24.707ZM204.86 24.8899C205 25.0696 205.047 25.2219 205.047 25.3555H206.047C206.047 24.9577 205.898 24.5944 205.648 24.2742L204.86 24.8899ZM205.047 25.3555C205.047 25.6875 204.842 26.1004 204.194 26.5833L204.791 27.3854C205.548 26.8215 206.047 26.1484 206.047 25.3555H205.047ZM204.193 26.5841C203.041 27.4458 201.714 27.8789 200.191 27.8789V28.8789C201.919 28.8789 203.459 28.3823 204.792 27.3847L204.193 26.5841ZM200.191 27.8789C198.655 27.8789 197.4 27.4356 196.392 26.57L195.741 27.3285C196.952 28.3691 198.447 28.8789 200.191 28.8789V27.8789ZM196.394 26.5719C195.904 26.1456 195.497 25.6286 195.172 25.0161L194.289 25.4839C194.667 26.1995 195.15 26.8153 195.738 27.3265L196.394 26.5719ZM195.174 25.0186C194.749 24.2057 194.539 23.3553 194.539 22.4609H193.539C193.539 23.5197 193.79 24.5286 194.287 25.4814L195.174 25.0186ZM194.539 22.4609C194.539 21.2581 194.901 20.1848 195.632 19.2247L194.837 18.619C193.974 19.7527 193.539 21.0387 193.539 22.4609H194.539ZM195.633 19.2241C196.266 18.3889 197.07 17.7674 198.053 17.3557L197.666 16.4334C196.524 16.9123 195.577 17.6424 194.836 18.6197L195.633 19.2241ZM198.054 17.3553C198.785 17.0471 199.581 16.8906 200.449 16.8906V15.8906C199.458 15.8906 198.528 16.07 197.665 16.4338L198.054 17.3553ZM200.449 16.8906C201.832 16.8906 202.979 17.281 203.919 18.0444L204.55 17.2681C203.412 16.344 202.035 15.8906 200.449 15.8906V16.8906ZM203.921 18.0455C204.395 18.4276 204.774 18.8779 205.063 19.3986L205.937 18.9139C205.585 18.2783 205.121 17.7287 204.548 17.267L203.921 18.0455ZM205.064 19.4004C205.398 19.9972 205.551 20.5544 205.551 21.0781H206.551C206.551 20.3518 206.337 19.6278 205.936 18.9121L205.064 19.4004ZM205.551 21.0781C205.551 21.5186 205.459 21.8352 205.314 22.0617L206.155 22.6024C206.431 22.1726 206.551 21.6533 206.551 21.0781H205.551ZM205.317 22.057C205.183 22.2602 205.056 22.3125 204.914 22.3125V23.3125C205.444 23.3125 205.864 23.0445 206.152 22.607L205.317 22.057ZM199.711 21.1211H200.895V20.1211H199.711V21.1211ZM200.895 21.1211C201.212 21.1211 201.543 21.0488 201.796 20.8159C202.056 20.5759 202.145 20.2481 202.145 19.9297H201.145C201.145 20.0011 201.135 20.0421 201.127 20.0622C201.124 20.0718 201.121 20.0766 201.12 20.0783C201.119 20.0798 201.118 20.0803 201.118 20.0806C201.118 20.081 201.115 20.0831 201.11 20.0863C201.104 20.0897 201.093 20.0947 201.076 20.0999C201.041 20.1108 200.983 20.1211 200.895 20.1211V21.1211ZM202.145 19.9297C202.145 19.4062 201.991 18.935 201.651 18.5616L200.912 19.2353C201.056 19.3931 201.145 19.6094 201.145 19.9297H202.145ZM201.651 18.5616C201.305 18.1824 200.85 18 200.332 18V19C200.596 19 200.773 19.0833 200.912 19.2353L201.651 18.5616ZM200.332 18C199.74 18 199.244 18.244 198.896 18.7215L199.705 19.3097C199.858 19.0997 200.049 19 200.332 19V18ZM198.897 18.7204C198.614 19.108 198.449 19.5333 198.449 19.9883H199.449C199.449 19.787 199.519 19.5639 199.704 19.3109L198.897 18.7204ZM198.449 19.9883C198.449 20.279 198.514 20.6254 198.788 20.8601L199.439 20.1008C199.465 20.1238 199.469 20.1424 199.465 20.129C199.459 20.1124 199.449 20.0695 199.449 19.9883H198.449ZM198.801 20.8709C199.056 21.0753 199.402 21.1211 199.711 21.1211V20.1211C199.596 20.1211 199.516 20.1112 199.465 20.0992C199.413 20.087 199.409 20.0769 199.426 20.09L198.801 20.8709Z" fill="#45413C"/>
</g>
<g filter="url(#filter1_d)">
<path d="M40.4205 9.70471C35.358 7.19906 29.7856 5.89551 24.1369 5.89551C18.4883 5.89551 12.9159 7.19906 7.85339 9.70471L10.0663 14.2187C11.2724 16.6537 11.899 19.3347 11.8974 22.052V26.3995C11.8856 26.8759 12.0422 27.3412 12.3394 27.7136C12.6367 28.0861 13.0556 28.3419 13.5228 28.4362C13.8064 28.4851 14.0972 28.471 14.3747 28.3947C14.6522 28.3185 14.9095 28.182 15.1283 27.995C15.347 27.8081 15.5219 27.5752 15.6404 27.3129C15.7589 27.0507 15.8182 26.7656 15.814 26.4778V25.812L23.2655 40.852C23.3476 41.0124 23.4725 41.147 23.6262 41.241C23.78 41.335 23.9567 41.3847 24.1369 41.3847C24.3171 41.3847 24.4939 41.335 24.6476 41.241C24.8014 41.147 24.9262 41.0124 25.0084 40.852L27.564 35.6918V37.7187C27.564 38.1082 27.7188 38.4818 27.9942 38.7572C28.2696 39.0327 28.6432 39.1874 29.0328 39.1874C29.4223 39.1874 29.7959 39.0327 30.0713 38.7572C30.3468 38.4818 30.5015 38.1082 30.5015 37.7187V32.0395C30.4867 30.5372 30.8219 29.052 31.4807 27.7018C32.7144 25.1951 34.0363 22.5416 35.3974 19.8685V22.5416C35.3974 22.9311 35.5521 23.3047 35.8275 23.5801C36.103 23.8556 36.4766 24.0103 36.8661 24.0103C37.2556 24.0103 37.6292 23.8556 37.9047 23.5801C38.1801 23.3047 38.3349 22.9311 38.3349 22.5416V16.177C38.3245 14.672 38.6595 13.1847 39.314 11.8295L40.4205 9.70471Z" fill="#FFE500"/>
<path d="M24.1369 9.07804C29.3195 9.07684 34.443 10.1783 39.1671 12.3093C39.2259 12.1624 39.2846 12.0058 39.3532 11.8687L40.4205 9.70471C35.358 7.19906 29.7856 5.89551 24.1369 5.89551C18.4883 5.89551 12.9159 7.19906 7.85339 9.70471L9.1361 12.2603C13.855 10.1505 18.9679 9.0659 24.1369 9.07804Z" fill="#EBCB00"/>
<path d="M30.5015 20.5833C29.3329 20.5833 28.2122 21.0475 27.3858 21.8738C26.5595 22.7001 26.0953 23.8209 26.0953 24.9895C26.0953 26.1581 26.5595 27.2789 27.3858 28.1052C28.2122 28.9315 29.3329 29.3958 30.5015 29.3958H30.6876C31.7744 27.2122 32.9299 24.872 34.1049 22.4828C33.7032 21.8978 33.1654 21.4192 32.5376 21.0883C31.9099 20.7574 31.2111 20.5841 30.5015 20.5833Z" fill="#FF6242" stroke="#45413C" stroke-linecap="round" stroke-linejoin="round"/>
<path d="M23.6474 30.8645C23.6487 30.2855 23.5356 29.712 23.3146 29.1768C23.0936 28.6416 22.7691 28.1554 22.3597 27.7459C21.9503 27.3365 21.464 27.012 20.9289 26.791C20.3937 26.5701 19.8201 26.457 19.2411 26.4583C18.2803 26.4602 17.3472 26.7805 16.5876 27.3689L20.4161 35.0945C21.3431 34.8397 22.1611 34.2881 22.7447 33.5241C23.3283 32.7601 23.6454 31.8259 23.6474 30.8645Z" fill="#FF6242" stroke="#45413C" stroke-linecap="round" stroke-linejoin="round"/>
<path d="M30.5015 17.1563C32.935 17.1563 34.9078 15.1835 34.9078 12.75C34.9078 10.3165 32.935 8.34375 30.5015 8.34375C28.068 8.34375 26.0953 10.3165 26.0953 12.75C26.0953 15.1835 28.068 17.1563 30.5015 17.1563Z" fill="#FF6242" stroke="#45413C" stroke-linecap="round" stroke-linejoin="round"/>
<path d="M24.137 5.89583C29.7865 5.88795 35.3607 7.19184 40.4205 9.70479C40.4205 9.70479 42.8391 10.0083 43.2307 7.85417C44.2099 2.46875 28.2201 1 24.137 1C20.0538 1 4.06405 2.46875 5.04322 7.85417C5.43489 10.0083 7.85343 9.70479 7.85343 9.70479C12.9133 7.19184 18.4875 5.88795 24.137 5.89583Z" fill="#F0D5A8"/>
<path d="M5.08236 8.01083C8.64653 4.49563 20.6119 3.44792 24.1369 3.44792C27.6619 3.44792 39.6274 4.49563 43.1915 8.01083C43.1915 7.95208 43.1915 7.91292 43.1915 7.85417C44.1707 2.46875 28.1809 1 24.0978 1C20.0147 1 4.06403 2.46875 5.0432 7.85417C5.05299 7.91292 5.07257 7.95208 5.08236 8.01083Z" fill="#F7E5C6"/>
<path d="M24.137 5.89583C29.7865 5.88795 35.3607 7.19184 40.4205 9.70479C40.4205 9.70479 42.8391 10.0083 43.2307 7.85417C44.2099 2.46875 28.2201 1 24.137 1C20.0538 1 4.06405 2.46875 5.04322 7.85417C5.43489 10.0083 7.85343 9.70479 7.85343 9.70479C12.9133 7.19184 18.4875 5.88795 24.137 5.89583V5.89583Z" stroke="#45413C" stroke-linecap="round" stroke-linejoin="round"/>
<path d="M17.2828 19.6042C19.7163 19.6042 21.689 17.6315 21.689 15.198C21.689 12.7645 19.7163 10.7917 17.2828 10.7917C14.8493 10.7917 12.8765 12.7645 12.8765 15.198C12.8765 17.6315 14.8493 19.6042 17.2828 19.6042Z" fill="#FF6242" stroke="#45413C" stroke-linecap="round" stroke-linejoin="round"/>
<path d="M15.814 25.7924V23.5208" stroke="#45413C" stroke-linecap="round" stroke-linejoin="round"/>
<path d="M40.4205 9.70471C35.358 7.19906 29.7856 5.89551 24.1369 5.89551C18.4883 5.89551 12.9159 7.19906 7.85339 9.70471L10.0663 14.2187C11.2724 16.6537 11.899 19.3347 11.8974 22.052V26.3995C11.8856 26.8759 12.0422 27.3412 12.3394 27.7136C12.6367 28.0861 13.0556 28.3419 13.5228 28.4362C13.8064 28.4851 14.0972 28.471 14.3747 28.3947C14.6522 28.3185 14.9095 28.182 15.1283 27.995C15.347 27.8081 15.5219 27.5752 15.6404 27.3129C15.7589 27.0507 15.8182 26.7656 15.814 26.4778V25.812L23.2655 40.852C23.3476 41.0124 23.4725 41.147 23.6262 41.241C23.78 41.335 23.9567 41.3847 24.1369 41.3847C24.3171 41.3847 24.4939 41.335 24.6476 41.241C24.8014 41.147 24.9262 41.0124 25.0084 40.852L27.564 35.6918V37.7187C27.564 38.1082 27.7188 38.4818 27.9942 38.7572C28.2696 39.0327 28.6432 39.1874 29.0328 39.1874C29.4223 39.1874 29.7959 39.0327 30.0713 38.7572C30.3468 38.4818 30.5015 38.1082 30.5015 37.7187V32.0395C30.4867 30.5372 30.8219 29.052 31.4807 27.7018C32.7144 25.1951 34.0363 22.5416 35.3974 19.8685V22.5416C35.3974 22.9311 35.5521 23.3047 35.8275 23.5801C36.103 23.8556 36.4766 24.0103 36.8661 24.0103C37.2556 24.0103 37.6292 23.8556 37.9047 23.5801C38.1801 23.3047 38.3349 22.9311 38.3349 22.5416V16.177C38.3245 14.672 38.6595 13.1847 39.314 11.8295L40.4205 9.70471Z" stroke="#45413C" stroke-linecap="round" stroke-linejoin="round"/>
<path d="M27.564 33.3125V35.6919" stroke="#45413C" stroke-linecap="round" stroke-linejoin="round"/>
<path d="M35.3973 18.1355V19.8588" stroke="#45413C" stroke-linecap="round" stroke-linejoin="round"/>
</g>
<defs>
<filter id="filter0_d" x="46.8164" y="11.2969" width="163.734" height="29.9062" filterUnits="userSpaceOnUse" color-interpolation-filters="sRGB">
<feFlood flood-opacity="0" result="BackgroundImageFix"/>
<feColorMatrix in="SourceAlpha" type="matrix" values="0 0 0 0 0 0 0 0 0 0 0 0 0 0 0 0 0 0 127 0"/>
<feOffset dy="4"/>
<feGaussianBlur stdDeviation="2"/>
<feColorMatrix type="matrix" values="0 0 0 0 0 0 0 0 0 0 0 0 0 0 0 0 0 0 0.25 0"/>
<feBlend mode="normal" in2="BackgroundImageFix" result="effect1_dropShadow"/>
<feBlend mode="normal" in="SourceGraphic" in2="effect1_dropShadow" result="shape"/>
</filter>
<filter id="filter1_d" x="0.499329" y="0.5" width="47.2753" height="49.3847" filterUnits="userSpaceOnUse" color-interpolation-filters="sRGB">
<feFlood flood-opacity="0" result="BackgroundImageFix"/>
<feColorMatrix in="SourceAlpha" type="matrix" values="0 0 0 0 0 0 0 0 0 0 0 0 0 0 0 0 0 0 127 0"/>
<feOffset dy="4"/>
<feGaussianBlur stdDeviation="2"/>
<feColorMatrix type="matrix" values="0 0 0 0 0 0 0 0 0 0 0 0 0 0 0 0 0 0 0.25 0"/>
<feBlend mode="normal" in2="BackgroundImageFix" result="effect1_dropShadow"/>
<feBlend mode="normal" in="SourceGraphic" in2="effect1_dropShadow" result="shape"/>
</filter>
</defs>
</svg>
